<svg xmlns="http://www.w3.org/2000/svg" viewBox="0 0 350 308.87"><defs><style>.cls-1{fill:#c6c3be;}.cls-2{fill:#f8f5f0;}.cls-3{fill:#1d2023;}.cls-4{fill:#747573;}.cls-5{fill:#e8e6e2;}.cls-6{fill:#414244;}.cls-7{fill:#bebdbf;}.cls-8{fill:#999996;}.cls-9{fill:#9e9d9b;}.cls-10{fill:#d7d5d1;}.cls-11{fill:#c3c2bf;}.cls-12{fill:#b5b4b2;}.cls-13{fill:#bdbcb8;}.cls-14{fill:#c1beb9;}.cls-15{fill:#3a3b3c;}.cls-16{fill:#656664;}.cls-17{fill:#888884;}.cls-18{fill:#777673;}.cls-19{fill:#9a9995;}.cls-20{fill:#a3a39f;}.cls-21{fill:#b8b7b2;}.cls-22{fill:#c2c1bd;}.cls-23{fill:#dcd9d4;}.cls-24{fill:#28292d;}.cls-25{fill:#3a3c3e;}.cls-26{fill:#48494b;}.cls-27{fill:#2a2d30;}.cls-28{fill:#101216;}.cls-29{fill:#424345;}.cls-30{fill:#292a2e;}.cls-31{fill:#323437;}.cls-32{fill:#333436;}.cls-33{fill:#5f5f61;}.cls-34{fill:#2e2f33;}.cls-35{fill:#37383a;}.cls-36{fill:#494b4b;}.cls-37{fill:#363636;}.cls-38{fill:#bcbbb7;}.cls-39{fill:#040408;}.cls-40{fill:#444547;}.cls-41{fill:#a7a6a1;}.cls-42{fill:#494a49;}.cls-43{fill:#7b7a77;}.cls-44{fill:#7e7e7b;}.cls-45{fill:#686866;}.cls-46{fill:#83827f;}.cls-47{fill:#141619;}.cls-48{fill:#8e8e8a;}.cls-49{fill:#303133;}.cls-50{fill:#484947;}.cls-51{fill:#313335;}.cls-52{fill:#5d5d5d;}.cls-53{fill:#3d3e40;}.cls-54{fill:#333437;}.cls-55{fill:#4d4f4f;}.cls-56{fill:#545555;}.cls-57{fill:#7a7b77;}.cls-58{fill:#959490;}.cls-59{fill:#3b3c3e;}.cls-60{fill:#797976;}.cls-61{fill:#7d7d7b;}.cls-62{fill:#767673;}.cls-63{fill:#757574;}.cls-64{fill:#706f6d;}.cls-65{fill:#7f7e7c;}.cls-66{fill:#757573;}.cls-67{fill:#18191b;}.cls-68{fill:#121414;}.cls-69{fill:#636361;}.cls-70{fill:#222428;}.cls-71{fill:#1e2023;}.cls-72{fill:#0b0e12;}.cls-73{fill:#83847f;}.cls-74{fill:#323335;}.cls-75{fill:#494a4a;}.cls-76{fill:#5f605f;}.cls-77{fill:#060303;}.cls-78{fill:#1b1918;}.cls-79{fill:#130d0a;}.cls-80{fill:#f6b2c0;}.cls-81{fill:#74462c;}.cls-82{fill:#5d3723;}.cls-83{fill:#75472d;}.cls-84{fill:#c68f9a;}.cls-85{fill:#f6b1c1;}.cls-86{fill:#423435;}.cls-87{fill:#e092a0;}.cls-88{fill:#e194a3;}.cls-89{fill:#0f0404;}.cls-90{fill:#e193a1;}.cls-91{fill:#020101;}.cls-92{fill:#201011;}.cls-93{fill:#261314;}.cls-94{fill:#040404;}.cls-95{fill:#f0607f;}.cls-96{fill:#1a0506;}.cls-97{fill:#1c0506;}.cls-98{fill:#8a293e;}.cls-99{fill:#8c283e;}.cls-100{fill:#eaeaea;}.cls-101{fill:#ffb0d0;}</style></defs><g id="Layer_2" data-name="Layer 2"><g id="Layer_2-2" data-name="Layer 2"><path class="cls-1" d="M133.3,243.09a12.34,12.34,0,0,0,1.76.39q10.78.75,21.57,1.44c5.9.39,11.8.73,17.7,1.17,7.42.56,14.84,1.22,22.27,1.79,5.53.43,11.06.75,16.59,1.18s11.16,1,16.74,1.42l14.73,1.17a15.09,15.09,0,0,1,1.75.36c-.08,1-.94.86-1.52,1-5.87,1.43-11.78,2.69-17.67,4-3.9.9-7.8,1.85-11.72,2.65a3.18,3.18,0,0,0-2.7,1.94c-.46,1.15-1.24,1.24-1.77.05s-1.25-1.15-2.25-.88c-2,.56-4.07,1-6.13,1.39a2.88,2.88,0,0,1-2.16,0,1.3,1.3,0,0,1-.38-.62c-.75-2.47-2.21-3.87-5-3.5-1.47.2-2.92-.37-4.41-.38-.59,0-1.44,0-1.49-.74-.07-1,.94-.7,1.95-1.07-2.3-.33-4.15-.9-6.08-1.12a17.35,17.35,0,0,1-4.44-1.19c-1.11-.44-2.33-1-2.29-2.53a.9.9,0,0,1,.38-.37c1.68.19,3.07-.89,4.64-1-5-.49-9.92-1-14.89-1.14a9.69,9.69,0,0,1-2.15-.15,12.92,12.92,0,0,0-3.4-.26,4.37,4.37,0,0,1-1-.15c-3.44-.3-6.87-.53-10.31-.83-5.33-.47-10.67-.84-16-1.29a4.75,4.75,0,0,1-2.43-1.65,1.09,1.09,0,0,1-.18-.54A.62.62,0,0,1,133.3,243.09Z"/><path class="cls-2" d="M200.42,262c2.82-.59,5.66-1.13,8.46-1.82,1.45-.36,2.52-.47,2.61,1.45,0,.19.21.38.61,1.07.18-4,3.16-3.48,5.27-4,9.57-2.26,19.17-4.35,28.76-6.52.11,0,.19-.15.28-.23,1.8,1.29,2.12,4.73.63,6.16a23.94,23.94,0,0,0-1.72,2l-.24-.16c-.5-1.2-1.4-1.1-2.45-.86-8.46,2-16.93,3.94-25.36,6.09-1,.25-2,.52-3.07.67a4.44,4.44,0,0,1-.52.15c-.33.08-.66.16-1,.26a3.43,3.43,0,0,1-.71.14,4.73,4.73,0,0,0-1.11.21,3.25,3.25,0,0,1-.42.11,5.33,5.33,0,0,0-1.05.24,2.17,2.17,0,0,1-.42.11,5.35,5.35,0,0,0-1.05.25,2.13,2.13,0,0,1-.43.13,8.3,8.3,0,0,0-1.09.28,3.15,3.15,0,0,1-.44.11,5.86,5.86,0,0,0-1.08.26,3,3,0,0,1-.43.11,5.47,5.47,0,0,0-1.06.26,3.45,3.45,0,0,1-.43.12,5.76,5.76,0,0,0-1.07.26,2.09,2.09,0,0,1-.43.11,5.47,5.47,0,0,0-1.06.26,3.81,3.81,0,0,1-.65.15,6.24,6.24,0,0,0-.85.22,2.17,2.17,0,0,1-.42.11,6.31,6.31,0,0,0-1.06.26,3.71,3.71,0,0,1-.64.15,6.28,6.28,0,0,0-.85.23,3,3,0,0,1-.43.11,5.66,5.66,0,0,0-1.06.26,4.58,4.58,0,0,1-.64.15,5.75,5.75,0,0,0-.84.22,4.94,4.94,0,0,1-.64.15,4.71,4.71,0,0,0-.84.22,3,3,0,0,1-.43.11,5.37,5.37,0,0,0-1,.26,4.94,4.94,0,0,1-.64.15,5.06,5.06,0,0,0-.85.22,3.25,3.25,0,0,1-.42.11,5.47,5.47,0,0,0-1.06.26,3.5,3.5,0,0,1-.64.15,6.24,6.24,0,0,0-.85.22,2.17,2.17,0,0,1-.42.11,5.49,5.49,0,0,0-1.06.27,4.72,4.72,0,0,1-.65.15,6.45,6.45,0,0,0-.84.21,3.5,3.5,0,0,1-.64.15,4.84,4.84,0,0,0-.83.22,3,3,0,0,1-.43.11,5.4,5.4,0,0,0-1.05.27,3,3,0,0,1-.43.11,5.47,5.47,0,0,0-1.06.26,5.08,5.08,0,0,1-.65.15,4.71,4.71,0,0,0-.84.22,3.67,3.67,0,0,1-.64.14,6,6,0,0,0-.83.22,2.17,2.17,0,0,1-.42.11,6.2,6.2,0,0,0-1.05.26l-.42.12a6.29,6.29,0,0,0-1.06.25l-.42.12a5.5,5.5,0,0,0-1,.24,6.4,6.4,0,0,1-.62.2l-.62.21a3,3,0,0,1-.65.13,4.32,4.32,0,0,0-1.07.21,2.58,2.58,0,0,1-.42.11,5.16,5.16,0,0,0-1,.25L166,278c-.28.07-.55.17-.83.26a2.51,2.51,0,0,1-.66.14,4.48,4.48,0,0,0-.89.15l-.42.14c-.35.09-.69.2-1,.32a4.31,4.31,0,0,1-.62.15,5.84,5.84,0,0,0-.82.22,3.21,3.21,0,0,1-.63.14,6,6,0,0,0-.83.22,2.58,2.58,0,0,1-.42.12,4.89,4.89,0,0,0-1.05.26,3.25,3.25,0,0,1-.42.11,5.76,5.76,0,0,0-1.07.26,3.61,3.61,0,0,1-.65.15c-.29.06-.58.14-.87.23a2.37,2.37,0,0,1-.46.11c-.24,0-.48.06-.72.08-.43,0-.84.15-1.27.18a1,1,0,0,1-.74-.34c-.74-2.38-1.11-4.77-.1-7.18q8.19-2.12,16.45-3.93c2.32-.5,4.63-1.07,6.94-1.65a3.58,3.58,0,0,1,.54-.14c1.82-.27,3.54-.95,5.36-1.17a8.37,8.37,0,0,0,1-.18,5.83,5.83,0,0,1,.7-.15,5.51,5.51,0,0,0,.89-.22,4.54,4.54,0,0,1,.66-.15,6.24,6.24,0,0,0,.85-.22,3.61,3.61,0,0,1,.65-.15,8.19,8.19,0,0,0,.85-.23,4.74,4.74,0,0,1,.65-.16,8.75,8.75,0,0,0,.88-.23,5.34,5.34,0,0,1,.89-.15,5.11,5.11,0,0,0,.88-.2,5,5,0,0,1,.67-.15c.29-.06.58-.14.87-.23a3.05,3.05,0,0,1,.67-.13,5,5,0,0,0,1.09-.22,4.72,4.72,0,0,1,.65-.15,5.16,5.16,0,0,0,.84-.21,4.56,4.56,0,0,1,.64-.14,4.37,4.37,0,0,0,.86-.23,3,3,0,0,1,.45-.14,6.58,6.58,0,0,0,2.24-.83,2.44,2.44,0,0,1,.44-.19,3.31,3.31,0,0,1,1.13-.1Z"/><path class="cls-3" d="M133.3,243.09a1,1,0,0,0-.15.33,1.43,1.43,0,0,1-1.21.51,5.11,5.11,0,0,0-1.29.21,6,6,0,0,1-1,.15,4.68,4.68,0,0,0-1.23.22,5.62,5.62,0,0,1-1,.15,4.66,4.66,0,0,0-1.22.21,3.68,3.68,0,0,1-.75.14c-.72,0-1.34.4-2.05.42a.92.92,0,0,1-.54-1.2c1.55-1.14,3.43-.85,5.17-1.14,4.64-.79,4.1-.55,3.62-4.67-.31-2.57-.55-5.15-1-7.7-1-9.11-2.25-18.19-3.14-27.32,0-.24-.14-.47-.18-.71-1.47-12.38-3-24.76-4.47-37.14-1-8.15-2-16.3-2.8-24.47a11.83,11.83,0,0,0-.67-2.88,3.56,3.56,0,0,0-3.08-2.56c-1.84-.25-3.69-.34-5.51-.69a8.62,8.62,0,0,1-1.9-.17,4.6,4.6,0,0,0-1.88-.19c-7.58-.72-15.16-1.54-22.73-2.39-2.32-.26-4.64-.46-7-.72-4.57-.56-9.16-.92-13.72-1.49-3.26-.52-6.58-.62-9.85-1.1-4.75-.62-9.52-1-14.28-1.54-.92-.1-1.22.39-.74,1.07,1.49,2.1,2.33,4.82,5.22,5.64.43.12,1,.33.41,1a4.58,4.58,0,0,1-2.54.17c-8.55-1-17.14-1.59-25.7-2.51-2-.21-4.06.06-6-.82-.29-.88.52-.85.94-1a8.36,8.36,0,0,0,3.8-2.54c1.1-1.27,2.74-1.84,4.14-3.12a42.18,42.18,0,0,0-5.22-.79c-2.56-.36-5.17-.42-7.69-1-1.24-.28-2.36.92-3.56.09a.88.88,0,0,1,0-.53,1.19,1.19,0,0,1,.56-.57,2.71,2.71,0,0,1,.49-.22c.42-.06.85-.15,1.27-.24s1-.12,1.54.14q11.22,1.32,22.44,2.63,15.84,1.81,31.67,3.57c8.52.95,17,1.84,25.58,2.77l30.72,3.36c2.41.27,3.84,1.79,4.22,4.65.69,5.08,1.27,10.16,1.87,15.24q1.64,13.6,3.24,27.19c.91,7.78,1.8,15.56,2.72,23.34.91,7.59,1.87,15.18,2.77,22.77C132.2,232.79,132.73,237.94,133.3,243.09Z"/><path class="cls-4" d="M174,277.6c-4.55,1.06-9.11,2.15-13.67,3.17-3.72.84-7.45,1.6-11.17,2.39-9.79.11-19.39-1.73-29.07-2.7-2.81-.28-5.59-.84-8.42-.85a6,6,0,0,1-.93-.14,5.63,5.63,0,0,0-2-.28,6.13,6.13,0,0,1-1.13-.14,6.72,6.72,0,0,0-2.23-.22,6.13,6.13,0,0,1-1.41-.14,5.47,5.47,0,0,0-1.93-.23,6,6,0,0,1-1.4-.15,4.93,4.93,0,0,0-1.66-.22,7.86,7.86,0,0,1-1.75-.15,5.85,5.85,0,0,0-1.82-.2c-5-.62-10-1.2-15-1.71-5.2-.52-10.39-1.13-15.59-1.67-5.44-.57-10.88-1.1-16.32-1.7-4-.44-8.08-.75-12.11-1.2-2.87-.33-5.75-.56-8.59-1.14a2,2,0,0,0-1.09,0,3.26,3.26,0,0,1-2.94-1.26c4-.69,7.91.45,11.86.36,3.78.47,7.58.84,11.37,1.35,6.29.84,12.6,1.46,18.91,2.11,5.08.52,10.16,1.14,15.24,1.66s10,1.06,15.06,1.67,9.8,1,14.69,1.62,9.67,1.14,14.51,1.63c6.56.65,13.07,1.68,19.65,2.2,4.71.36,9-.61,13.47-1.72s9.1-2.49,13.72-3.42a4,4,0,0,1,1.65.55A.43.43,0,0,1,174,277.6Z"/><path class="cls-5" d="M6.36,122.13l-1.86.11c-.34.21-.8,0-1.13.28h0c-.16.24-.54.13-.66.42l0,0c-1.69,3.79-.59,7.65-.15,11.46.86,7.55,1.77,15.08,2.58,22.63.06.61.28,1.2.3,1.82.62,6.3,1.41,12.58,2.1,18.87.16,1.46.31,2.92.49,4.38.23,1.82.26,3.66.63,5.46q1.32,11.91,2.62,23.82c.68,6.36,1.36,12.71,2,19.08.36,3.79,1,7.56,1.07,11.37-.08.7.15,1.86-.67,1.85s-.46-1.16-.58-1.81c-.05-.24,0-.49-.06-.73a30.24,30.24,0,0,1-.51-3.92c0-.25-.09-.38-.06-.13l-.16.06L12,235.28c.38-2.59-.3-5.12-.52-7.67-.52-5.68-1.22-11.34-1.79-17-.34-3.35-.78-6.7-1.15-10a8.09,8.09,0,0,1-.27-2.77A2.47,2.47,0,0,0,8,196.37a6.81,6.81,0,0,1-.13-1.69c0-.28-.13-.55-.17-.84a13.39,13.39,0,0,1-.21-2.61c-.08-.6-.22-1.19-.33-1.79-.29-3-.55-6.09-.93-9.12-.62-4.93-1.13-9.88-1.71-14.82-.43-3.59-.91-7.18-1.33-10.77s-.93-7.44-1.25-11.18C1.53,139,.87,134.5.37,130c0-.2-.19-.3-.37-.37.16-1.87.31-3.75.47-5.62a15.15,15.15,0,0,0,1.44-1.86C3.4,120.89,4.88,121.92,6.36,122.13Z"/><path class="cls-6" d="M111.35,279.09c4,.4,8,.76,11.92,1.21,4.94.55,9.87,1.22,14.82,1.73,3.42.36,6.86.52,10.29.78a3.21,3.21,0,0,1,.82.35l-1.48.38c-3.65.51-7.26,0-10.85-.47-6.12-.73-12.27-1.18-18.38-2-6.72-.84-13.48-1.27-20.21-2.11-3.28-.4-6.62-.57-9.92-.91-4.15-.44-8.3-.86-12.45-1.31-6.66-.73-13.34-1.34-20-2.19-3.05-.39-6.13-.56-9.15-1.21-.41-.09-1.08.19-1.13-.6a3.67,3.67,0,0,1,2.86-.27c3.21.52,6.46.63,9.68,1,4.19.49,8.4.84,12.59,1.37,2.68.33,5.36.62,8,.85,3.91.33,7.8.85,11.7,1.28s7.68.83,11.52,1.3c2.81.34,5.63.56,8.43.89A1.16,1.16,0,0,0,111.35,279.09Z"/><path class="cls-7" d="M45.6,272.83c5.2.7,10.38,1.49,15.59,2.08,8.57,1,17.17,1.81,25.75,2.69,8.16.84,16.33,1.65,24.48,2.51,9,.94,18,1.95,27.06,2.86,3.07.31,6.16.39,9.24.57a7.37,7.37,0,0,1-1.93.36c-4.85-.34-9.7-.7-14.54-1.16-5.64-.53-11.27-1.18-16.9-1.77-10.35-1.1-20.71-2.22-31.06-3.28-8-.82-16-1.5-23.91-2.36-5.38-.58-10.74-1.39-16.11-2-4-.48-8-.79-11.93-1.29A21.22,21.22,0,0,1,27.87,271l.17-.28c1.35-.43,2.65.1,4,.23,3.74.37,7.45.93,11.19,1.19C44,272.16,45,272.05,45.6,272.83Z"/><path class="cls-8" d="M0,129.6l.12-.72.31-.06c.21,1.33.46,2.67.61,4q1.38,11.74,2.73,23.49c.82,7,1.66,14.07,2.47,21.1.11,1,.11,2,.17,3,.11.39-.06.49-.42.4-.49-3.66-1-7.31-1.45-11-.68-5.62-1.31-11.25-1.94-16.88Q1.52,143.19.45,133.45C.31,132.17.15,130.89,0,129.6Z"/><path class="cls-2" d="M174,277.6a1.08,1.08,0,0,0,.07-.31l.17-.23a17.12,17.12,0,0,1,3-1c12.95-3.38,26-6.34,39-9.55,8.93-2.2,17.89-4.32,26.84-6.46a4.33,4.33,0,0,1,1.64-.2,1.44,1.44,0,0,1,.54.3l0,0c-2.15.69-4.27,1.49-6.46,2-6,1.5-12.06,2.87-18.08,4.32l-44.91,10.88A13.83,13.83,0,0,1,174,277.6Z"/><path class="cls-9" d="M35.65,269.85l-11.45-.71-.09.36,2.73.64a.49.49,0,0,1,.77.17.3.3,0,0,1-.2.35,24.31,24.31,0,0,1-10.18-3.77A6.06,6.06,0,0,1,16,265.38c-.34-1.32-1.09-2.62-.17-4a.56.56,0,0,1,.5-.2c1,1.28,1,3.08,2.26,4.19.76.93,1.36,1.25,1.51-.36a4.88,4.88,0,0,1,.18-.91c.21-1-.25-2.31,1-2.73,1.12-.36,2.4-.71,3.34.54-.62.73-1.79.84-1.81,2.27,0,3.22,0,3.38,3.16,3.84,2.62.37,5.27.53,7.9.88.65.09,1.38,0,1.84.65Z"/><path class="cls-10" d="M16.08,261.21c0,1.39-.07,2.78-.11,4.17-.6-1.7-1.53-3.36-1.72-5.11-.67-6.08-1.07-12.18-1.58-18.28.38-.29,0-.87.42-1.14l.57,2.86.2-1.84c1.42,1.28.9,3.08,1.11,4.63.55,4.08.91,8.19,1.35,12.28a4.91,4.91,0,0,1,.15,1.27A1.67,1.67,0,0,1,16.08,261.21Z"/><path class="cls-11" d="M8.6,200.42c.31,2.35.64,4.7.9,7.05q1.42,12.94,2.78,25.9a7.23,7.23,0,0,1-.33,1.91c-.86-7.47-1.73-14.94-2.56-22.42-.42-3.77-.76-7.55-1.13-11.33C8.57,201.22,8.24,200.71,8.6,200.42Z"/><path class="cls-12" d="M8.6,200.42c-.11.37-.23.74-.34,1.11l-.06-1.42c-.33-.46,0-1.05-.29-1.51l-.1-1.8c-.24-.36,0-.82-.28-1.17l-.09-2.18c-.32-.6,0-1.29-.26-1.9l-.1-.38c-.41-.84.11-1.79-.32-2.63l0-1.08c-.36-.45,0-1.06-.32-1.52L6,180.78l.42-.4Q7,185,7.51,189.65c.32.46,0,1,.29,1.52l.09,2.91a1.8,1.8,0,0,0,.29.43l.06,1.82c.28.34,0,.81.3,1.14Z"/><path class="cls-11" d="M13.09,240.85,12.67,242c-.13-1.6-.27-3.2-.41-4.8,0-.23.06-.47.1-.7l.25,0Z"/><path class="cls-13" d="M1.91,122.12.47,124Z"/><path class="cls-5" d="M6.76,188.54c.11.88.22,1.76.32,2.63C7,190.3,6.87,189.42,6.76,188.54Z"/><path class="cls-11" d="M7.18,191.55c.09.64.17,1.27.26,1.9C7.35,192.82,7.27,192.19,7.18,191.55Z"/><path class="cls-5" d="M6.4,185.94c.11.51.21,1,.32,1.52C6.61,187,6.51,186.45,6.4,185.94Z"/><path class="cls-11" d="M7.91,198.6c.09.5.19,1,.29,1.51C8.1,199.61,8,199.1,7.91,198.6Z"/><path class="cls-11" d="M7.53,195.63c.09.39.19.78.28,1.17C7.72,196.41,7.62,196,7.53,195.63Z"/><path class="cls-9" d="M27.87,271l-.46-.3.2-.21a.49.49,0,0,1,.34.14Z"/><path class="cls-14" d="M184.09,266.43l-.74.05c-.2.21-.53.13-.75.32l-.73.05c-.21.21-.53.14-.75.31l-5.93,1.19c-.07-1.17-.72-1.49-1.81-1.39a4.62,4.62,0,0,1-2.92-.91c-2.34-1.42-4.76-2.77-7.63-2.86a3.08,3.08,0,0,1-1.43-.35c-.55-.3-1.1-.67-1.08-1.37s.64-.82,1.17-1,1.19-.08,1-.77-1-.79-1.54-.64c-2.48.59-5,.45-7.52.94-3.23.64-6.53,0-9.77.61-.55.1-1.44.1-1.48-.69s.77-.85,1.38-1c3.2-.64,6.39-1.35,9.63-1.82a3.83,3.83,0,0,0,3.28-2.33c1.34-1,3-1.11,4.54-1.36,5-.79,9.9-1.85,14.85-2.75.91-.16,1.8-.51,2.62.22s1.59,2,2.6,2.31c2.61.8,5.33,1.21,8,1.77a13.1,13.1,0,0,1,1.78.39,4.42,4.42,0,0,1,1,.78c-.47.14-.94.31-1.42.41a5.77,5.77,0,0,1-1,0l0,.44c1.67.19,3.35.41,5,.56.79.07,1.6,0,2.4,0a4,4,0,0,1,3.52,4.46h0c-.32.3-.82,0-1.13.34l-.18,0h-.18c-.91.58-2.16.28-3,1.13h0c-.22.18-.54.12-.75.3l-.74.05c-.21.22-.53.13-.75.32l-.74.05c-.31.33-.8,0-1.11.34l-.72.05c-.22.19-.55.11-.77.31l-.72.06c-.21.19-.54.12-.76.3l-1.08.08c-.23.18-.56.1-.78.32l-.71,0c-.22.19-.56.12-.77.32l-.72.05C184.63,266.32,184.3,266.24,184.09,266.43Z"/><path class="cls-15" d="M178.51,250.89c-4.47.79-8.95,1.55-13.41,2.37-2.84.52-5.65,1.14-8.48,1.72a3.14,3.14,0,0,1-1.67.74c-6,1-11.86,2.38-17.84,3.35a11.17,11.17,0,0,0-1.41.22,2.75,2.75,0,0,1-.57.12,1.35,1.35,0,0,1-1.33-.46,1.13,1.13,0,0,1,.14-1.16c1.7-1.17,3.78-.71,5.61-1.32,6.16-1.09,12.26-2.54,18.26-3.33-.74,0-1.75.35-2.65-.27a.7.7,0,0,1-.16-.57c1.07-.89,2.37-.51,3.5-.38a20.25,20.25,0,0,0,5.66,0,5.25,5.25,0,0,0,2.74-.64,8.92,8.92,0,0,1,1.37-.08,4.08,4.08,0,0,0,1.25-.15,2.78,2.78,0,0,1,2.76-.84,10.44,10.44,0,0,0,2.37-.09c.75.25,1-.62,1.66-.7,1-.17,2-.16,3.05-.29.77-.1,1.62-.12,1.85.95-.47,1.26-1.67.38-2.42.83l-.14,0Z"/><path class="cls-16" d="M127.35,244.24l1.08-.05c.34-.28.82-.05,1.17-.3l1.05-.07c.35-.28.82,0,1.16-.31l1.34-.09,0,.42c-.17,1.81-1.65,2-2.95,2.27-3.27.63-6.58,1-9.87,1.56-.55.08-1.08.22-1.63.32-5.2.61-10.34,1.63-15.52,2.4-5.91.88-11.79,2-17.72,2.76a3.72,3.72,0,0,1-2.5-.47.57.57,0,0,1-.26-.55c.49-.7,1.29-.7,2-.8,12.54-1.75,25-4,37.55-5.73.47-.08.95.15,1.42,0a2.06,2.06,0,0,1,.48-.21c.4-.33,1.39.37,1.31-.76l.7-.05C126.54,244.28,127,244.53,127.35,244.24Z"/><path class="cls-17" d="M135.11,245.31c6,.48,12,1,18,1.43,2.39.19,4.78.29,7.18.46.65.05,1.31.2,2,.31a1,1,0,0,1-.53.69,28.41,28.41,0,0,1-4.65,1c-.3,0-.6,0-.9,0-.59,0-1.18,0-1.76,0-.93,0-1.85,0-2.78,0-.48,0-1.19-.07-1.23-.59-.07-.77.78-.56,1.24-.76.27-.11.6,0,.88-.15a19,19,0,0,1-6.48.78,3,3,0,0,1-2-.8c-.22-.24.6-.6-.12-.51-2.08.27-4.15.53-6.16-.41a2.27,2.27,0,0,0-1.63.13c-1,0-2.06.42-2.91-.46C133.41,245.24,134.28,245.32,135.11,245.31Z"/><path class="cls-18" d="M161.8,247.87l.44-.36.68.08c1.1.47,2.3-.13,3.4.3l2.17.05c.73.37,1.52.09,2.28.18,1.07.12.87.55.28,1.09a39,39,0,0,0-7.21,1,24.41,24.41,0,0,1-5.47,0,1.44,1.44,0,0,1-1.46-.9c.66-.9,1.74-.49,2.6-.81S161.17,248.59,161.8,247.87Z"/><path class="cls-19" d="M171.12,249c-.2-.23-.35-.61-.6-.68a15.15,15.15,0,0,0-2-.38l13.32,1c.79.06,1.59.05,2.39.11a2,2,0,0,1,.66.34l-.78.38a23.81,23.81,0,0,1-3,.34c-.49-.23-1-.65-1.46-.66-1.2,0-2.4.16-3.6.25C174.32,249.79,172.57,250.44,171.12,249Z"/><path class="cls-20" d="M135.11,245.31l-1.9.79c-2.07,1.15-4.44.82-6.64,1.34-.19.06-.38.1-.57.14-1.51.16-3,.43-4.52.65a5,5,0,0,1-.86.15,3.74,3.74,0,0,1-1.45-.15c-.28-.15-.5-.33-.4-.69,3.73-.62,7.48-1.16,11.18-1.94a12.7,12.7,0,0,0,3.24-1.76Z"/><path class="cls-14" d="M181.05,250.12l3-.34c-1.8.21-3.29,1.86-5.29,1.08Z"/><path class="cls-17" d="M166.32,247.89l-3.4-.3Z"/><path class="cls-21" d="M136.58,258.74l20-3.76c.11,1.75-1.16,2.21-2.46,2.47-3.61.71-7.24,1.32-10.86,2-.28.05-.55.17-1,.3.24.21.36.4.46.39,4.1-.27,8.21-.52,12.31-.89,2.07-.18,4.11-.73,6.18-.82.7,0,1.44.86,2.16,1.33-.57.38-1.13.8-1.73,1.15a8.44,8.44,0,0,1-1.11.48c.31.35.6.71.93,1,.12.12.36.27.49.22,2.49-.78,4.23,1.26,6.4,1.68a2.89,2.89,0,0,1,1.67.68c1.2,1.58,2.81,1.58,4.5,1.49a15.38,15.38,0,0,1,1.55.1l-.93,1.77h0a16.67,16.67,0,0,0-7.06,1.8l-16.68,3.8-.75.35a1.82,1.82,0,0,0-1.54,2.31,4.9,4.9,0,0,1,0,1.48c-.11.78-.53,1.63-.1,2.34s1.38.27,2,.51c.36.13,1,.12.67.8-3.08.65-6.15.15-9.22-.06.17-1.08,1.07-.79,1.71-.85,2.13-.19,2.13-.17,1.82-2.32l-.06-.36c-.51-3.44-.5-3.47-4.06-3.92-1.84-.23-3.68-.4-5.53-.56-.66-.06-1.39,0-1.8-.7a24.6,24.6,0,0,1,.94-6.37c.55-1.8,0-3.64-.23-5.45-.07-.73-.4-1.44.14-2.12h0C135.78,258.77,136.24,259,136.58,258.74Z"/><path class="cls-21" d="M172.57,276.86l-13.74,3.33c-.43.34-.92.16-1.39.15a.34.34,0,0,1-.07-.5.89.89,0,0,1,.33,0c.33-.29.83,0,1.15-.34a1,1,0,0,1,.34,0c.22-.19.54-.12.76-.3l.71-.08c.23-.18.55-.11.78-.3l.71-.06c.33-.3.84,0,1.15-.35h0c.3-.33.8,0,1.11-.35l.7-.05c.23-.18.56-.11.78-.31a2.23,2.23,0,0,1,.36-.05c.32-.31.81,0,1.13-.33a1.32,1.32,0,0,1,.34,0c.33-.3.82,0,1.14-.34l.68-.05a3.18,3.18,0,0,0,.43-.28l.72-.08c.32-.3.83,0,1.14-.34a2,2,0,0,1,.35,0c.32-.3.82,0,1.13-.34a1.38,1.38,0,0,1,.35,0c.32-.3.83,0,1.14-.34a1.87,1.87,0,0,1,.34,0c.22-.19.54-.12.77-.29l.71-.09c.22-.18.55-.11.77-.3l.71-.07c.33-.28.83,0,1.15-.33a.75.75,0,0,1,.33,0c.33-.29.84,0,1.16-.35a1.22,1.22,0,0,1,.33,0c.22-.18.55-.11.77-.3l.71-.07c.23-.18.55-.11.78-.3l.69-.08c.34-.27.85,0,1.17-.35a1.13,1.13,0,0,1,.32,0c.24-.17.57-.1.79-.31l.7-.05c.33-.29.85,0,1.16-.35a.85.85,0,0,1,.32,0c.23-.17.56-.11.79-.3l.7-.07c.33-.28.84,0,1.16-.35a1.13,1.13,0,0,1,.32,0c.23-.18.56-.11.78-.3l.71-.07c.23-.18.55-.11.78-.3l.7-.07c.34-.28.84,0,1.16-.34a1.69,1.69,0,0,1,.33,0c.22-.18.55-.11.77-.3l.71-.07c.33-.29.84,0,1.16-.35a1.83,1.83,0,0,1,.33,0c.22-.18.55-.12.77-.3l.71-.07c.33-.29.84,0,1.15-.34a1.87,1.87,0,0,1,.34,0c.33-.29.83,0,1.15-.34a1.12,1.12,0,0,1,.32,0c.34-.28.84,0,1.16-.33a2,2,0,0,1,.34,0c.33-.3.83,0,1.14-.34a1,1,0,0,1,.35,0c.44-.37,1.08.07,1.51-.37h0c.32-.31.81,0,1.12-.34a2.22,2.22,0,0,1,.37,0c.3-.32.8,0,1.11-.34l.37,0c.31-.32.81,0,1.12-.34l.7-.05c.23-.18.56-.11.78-.3l.37,0a4,4,0,0,1,2.15-.11c0,1.29-1.1,1.09-1.79,1.27-6.56,1.66-13.11,3.36-19.69,4.91-6.76,1.6-13.47,3.43-20.23,5a7.08,7.08,0,0,0-1.12.11A.44.44,0,0,1,172.57,276.86Z"/><path class="cls-22" d="M216,265.75l-2.26,0c5.42-1.36,10.82-2.74,16.25-4.06,4.35-1.06,8.75-2,13.09-3.1,1.65-.43,2.18.09,2.21,1.61h-.38c-.86-.66-1.77-.34-2.66-.12q-11.89,2.9-23.78,5.76C217.67,266,216.81,266.44,216,265.75Z"/><path class="cls-22" d="M151.81,281.33c-3.56-.05-3.56,0-3.06-3.7a2.76,2.76,0,0,0-.09-1.07c-.46-1.77.42-2.49,2-2.66-.16,1.5-.22,3-.25,4.52a2.42,2.42,0,0,0,1.38,2.51l.73,0,.07.25C152.43,281.54,152.16,281.61,151.81,281.33Z"/><path class="cls-23" d="M151.82,280.93c-1.42.24-2-.25-1.9-1.78.12-1.15-.06-2.34.06-3.49a6.44,6.44,0,0,1,.71-1.76l.76,0Q151.63,277.43,151.82,280.93Z"/><path class="cls-14" d="M168.13,270.14a7.32,7.32,0,0,1,7.06-1.8Z"/><path class="cls-1" d="M196,263.53c.52-1.59,1.87-1,3-1.13Z"/><path class="cls-22" d="M207.82,267.2l-1.51.37Z"/><path class="cls-22" d="M174.8,275.39l-1.14.34Z"/><path class="cls-1" d="M199.29,262.38l1.13-.34Z"/><path class="cls-22" d="M173.31,275.76l-1.13.34Z"/><path class="cls-22" d="M171.83,276.13l-1.14.34Z"/><path class="cls-22" d="M168.86,276.88l-1.14.34Z"/><path class="cls-22" d="M167.38,277.26l-1.13.33Z"/><path class="cls-22" d="M164.41,278l-1.11.35Z"/><path class="cls-22" d="M163.3,278.35l-1.15.35Z"/><path class="cls-22" d="M158.85,279.47l-1.15.34Z"/><path class="cls-22" d="M157.37,279.84c0,.12,0,.24,0,.36a.78.78,0,0,1-.72.26.82.82,0,0,1-.44-.29Z"/><path class="cls-21" d="M156.2,280.17l.45.06c-.05.77-.61.47-1,.49a.3.3,0,0,1-.11-.46Z"/><path class="cls-23" d="M152.55,280.89l1.12-.29a.35.35,0,0,1,0,.44,1,1,0,0,1-.7.2,1.11,1.11,0,0,1-.45-.19Z"/><path class="cls-1" d="M191.88,264.59l1.11-.34Z"/><path class="cls-22" d="M180.74,273.89l-1.16.35Z"/><path class="cls-22" d="M211.9,266.13l-1.12.34Z"/><path class="cls-22" d="M210.41,266.5l-1.11.34Z"/><path class="cls-22" d="M208.93,266.87l-1.12.34Z"/><path class="cls-22" d="M206,267.6l-1.14.34Z"/><path class="cls-22" d="M204.48,268l-1.16.33Z"/><path class="cls-22" d="M203,268.34l-1.15.34Z"/><path class="cls-22" d="M201.51,268.71l-1.14.34Z"/><path class="cls-22" d="M198.55,269.44l-1.16.35Z"/><path class="cls-22" d="M195.58,270.19l-1.16.34Z"/><path class="cls-22" d="M191.13,271.29l-1.16.35Z"/><path class="cls-22" d="M188.16,272l-1.16.35Z"/><path class="cls-22" d="M185.19,272.77l-1.17.35Z"/><path class="cls-22" d="M179.25,274.28l-1.15.33Z"/><path class="cls-22" d="M160,279.14l-.76.3Z"/><path class="cls-1" d="M181.12,267.16l.75-.31Z"/><path class="cls-22" d="M183.33,273.2l-.78.3Z"/><path class="cls-22" d="M155.52,280.26c0,.11,0,.22,0,.32a.6.6,0,0,1-.39.19.54.54,0,0,1-.38-.22Z"/><path class="cls-22" d="M181.84,273.57l-.77.3Z"/><path class="cls-22" d="M213.38,265.78l-.78.3Z"/><path class="cls-22" d="M153.63,280.92a3.11,3.11,0,0,1,0-.32h.73a.31.31,0,0,1,.12.27c0,.1,0,.15,0,.15a.83.83,0,0,1-.45.15A.64.64,0,0,1,153.63,280.92Z"/><path class="cls-22" d="M196.68,269.86l-.77.3Z"/><path class="cls-1" d="M188.91,265.31l.76-.3Z"/><path class="cls-1" d="M182.6,266.8l.75-.32Z"/><path class="cls-22" d="M177.39,274.68l-.77.3Z"/><path class="cls-21" d="M154.39,280.93c0-.11,0-.23,0-.34a1.27,1.27,0,0,1,.34,0l.43.06C155.13,281.24,154.8,281.17,154.39,280.93Z"/><path class="cls-1" d="M187.05,265.71l.78-.32Z"/><path class="cls-22" d="M193.72,270.6l-.78.3Z"/><path class="cls-22" d="M192.23,271l-.78.3Z"/><path class="cls-22" d="M175.91,275.07l-.77.29Z"/><path class="cls-1" d="M190.39,265l.77-.31Z"/><path class="cls-1" d="M185.57,266.07l.76-.32Z"/><path class="cls-22" d="M189.27,271.71l-.79.3Z"/><path class="cls-1" d="M193.73,264.2l.75-.32Z"/><path class="cls-1" d="M184.09,266.43l.76-.31Z"/><path class="cls-1" d="M195.22,263.83l.75-.3Z"/><path class="cls-22" d="M165.89,277.64l-.78.31Z"/><path class="cls-22" d="M199.65,269.12l-.77.3Z"/><path class="cls-22" d="M186.3,272.44l-.79.31Z"/><path class="cls-22" d="M161.44,278.76l-.78.3Z"/><path class="cls-22" d="M170,276.55l-.43.28Z"/><path d="M10.06,131.45c1.68.23,3.35.53,5,.69,4.64.42,9.29.73,13.92,1.17,4.33.41,8.65.94,13,1.39.86.09,1.72,0,2.59.06,1.85-.87,3.72,0,5.58,0,1,0,1.94.29,2.93.23,3.82.29,7.62.83,11.45,1.12,3.32.21,6.62.56,9.94.82a4.25,4.25,0,0,1,.62.12,9.76,9.76,0,0,0,2.8.22c7.8.72,15.59,1.48,23.39,2.18,1.78.16,3.56.33,5.34.48a6.7,6.7,0,0,0,2.52.27,8,8,0,0,1,1.62.18c1.64.26,3.31.22,5,.46a2.59,2.59,0,0,1,2.5,2.48c.51,3.78.93,7.58,1.37,11.38q2.76,23.33,5.62,46.63a3.37,3.37,0,0,1,0,.55c.64,6.79,1.62,13.53,2.43,20.3.19,1.64.49,3.28.57,4.94.17,2.77.61,5.51.94,8.27.29,2.38,0,2.87-2.36,3.22-5.31.81-10.63,1.58-16,2.23a7.08,7.08,0,0,1-1.52.17,5.18,5.18,0,0,0-1.7.2,6.15,6.15,0,0,1-1.13.16,6.32,6.32,0,0,0-1.73.28c-4.2.53-8.37,1.3-12.58,1.8a7.8,7.8,0,0,1-1.53.18,5,5,0,0,0-1.79.25c-5.06.75-10.12,1.43-15.17,2.15a6.72,6.72,0,0,1-1.48.17,5.07,5.07,0,0,0-1.64.18,5.53,5.53,0,0,1-1.07.16,5.38,5.38,0,0,0-1.33.24,7.34,7.34,0,0,1-1.4.17,5.43,5.43,0,0,0-1.74.29Q45.51,250,25.94,252.68a5.08,5.08,0,0,1-1.17.16,7.87,7.87,0,0,0-1.87.15,4.31,4.31,0,0,1-.8.13,2.28,2.28,0,0,1-.82-.14,1.5,1.5,0,0,1-.48-.34,2.07,2.07,0,0,1-.39-.82c-.63-4.17-.91-8.37-1.47-12.54-1.59-13.28-3-26.58-4.57-39.86-.13-3.5-.87-6.94-1.13-10.43-.3-4.11-1-8.18-1.43-12.28-.21-3.86-.9-7.68-1.17-11.53-.24-3.69-.91-7.32-1.27-11-.68-6.92-1.63-13.81-2.25-20.73C6.91,131.11,7.87,130.46,10.06,131.45Z"/><path class="cls-24" d="M10.06,131.45c-2.59,0-2.53,0-2.26,2.5.67,6.28,1.26,12.56,1.93,18.84.43,4.14.94,8.27,1.42,12.41a55.06,55.06,0,0,0-5.09-5.6,3,3,0,0,1-.67-1.92c0,.54.37,1.14-.48,1.21Q3.59,148,2.28,137.06c-.34-2.87-.71-5.75-1-8.63-.19-2-.31-4,1.39-5.45.13.18.26.54.38.54,1.8,0,3.6-.33,5.38-.2,3.36.26,6.71.72,10,1.13a11.54,11.54,0,0,1,1.75.58c-.71.52-1.23.88-1.72,1.27A53.58,53.58,0,0,1,14,129.81,22.94,22.94,0,0,1,10.06,131.45Z"/><path class="cls-25" d="M124.75,201.92l-4.14-34.41c-1-8.12-2-16.23-2.93-24.35-.14-1.18-.56-1.7-1.83-1.76-1.76-.08-3.51-.43-5.26-.66a6.68,6.68,0,0,0-.59-2.66c-.72-1.34.35-2.44.61-3.66a42.55,42.55,0,0,1,6.73.85,4.34,4.34,0,0,1,2.45,2.66,48.34,48.34,0,0,1,1.2,7.22q1.11,8.67,2.13,17.33c.54,4.56,1,9.13,1.59,13.7.69,5.71,1.46,11.42,2.12,17.14.36,3.1.58,6.23.86,9.34.36.48,0,1,0,1.4a1,1,0,0,1-1.12,1c-.56,0-.83-.44-1-.93C125.23,203.39,125.45,202.5,124.75,201.92Z"/><path class="cls-26" d="M110.61,134.42a15.42,15.42,0,0,0,.3,5.9c0,.12-.21.28-.32.42l-1.46-.05c-.72-.41-1.55.07-2.27-.32l-16-1.35c-3.07-.27-6.14-.58-9.2-.87l-4-.41c-.8-.72-1.8.2-2.62-.35h0a26.59,26.59,0,0,0,.68-5.26c0-.93.46-1.57,1.57-1.07,4.64.46,9.28.9,13.92,1.37l11.91,1.23c1.4.14,2.81.26,4.22.39.43.38,1,0,1.49.34Z"/><path class="cls-27" d="M110.6,240.5c3.07-.49,6.14-1,9.22-1.47,2.66-.4,5.35-.73,8-1.13,1.63-.25.9-1.5.83-2.33-.26-2.81-.63-5.61-1-8.41a4.43,4.43,0,0,1,1.91,2.84c.25.76.55,1.21,1.41.86.37,2.32.75,4.65,1.09,7,.17,1.15.27,2.31.38,3.46s-.29,1.7-1.61,1.86c-2.7.33-5.36.94-8,1.43-1.95,1.26-4.27,1.08-6.41,1.45-4.13.7-8.29,1.25-12.43,1.88a3.47,3.47,0,0,1-1.47,0c-.6-1-.56-1.13.8-1.53a17.52,17.52,0,0,0,6.69-4.09A1.5,1.5,0,0,0,110.6,240.5Z"/><path class="cls-28" d="M102.08,247.55c3.85-.56,7.7-1.13,11.56-1.68l9.21-1.29.75.75c.36-.1.47.06.4.39h0c-.33.28-.8,0-1.14.3l-30.29,4.75-9.84,1.53c-.35.54-.93.53-1.47.63-7.51,1.4-15.07,2.47-22.61,3.69-4.92.8-9.85,1.55-14.78,2.34a23.37,23.37,0,0,1-6.08.13c-.71-.24-1.49-.23-2.18-.53-.27-.21-.52-.42-.19-.77,3.25-1.09,6.67-1.24,10-1.81,12.12-2,24.3-3.78,36.43-5.79,1-.17,2.09-.26,3.12-.47,4.76-.52,9.45-1.56,14.21-2.17A5.39,5.39,0,0,1,102.08,247.55Z"/><path class="cls-29" d="M77.23,131.07c-1.25-.09-1.11.79-1.12,1.59,0,1.66.38,3.43-1.13,4.74l-10.37-.81c-1.59.13-2.15-.69-2.35-2.18-.14-1.08-.5-2.14-.61-3.23-.16-1.57.15-1.81,1.85-1.6Z"/><path class="cls-30" d="M53.11,135.5l-8.53-.74c-3.93-.61-4.95-4.07-6.65-6.83-.49-.78-.36-1.42.84-1.29,4.69.51,9.39,1,14.08,1.5a2,2,0,0,1,.63.34,1.43,1.43,0,0,1-1,.46c-1.17.25-1.3.86-.82,1.87A13,13,0,0,1,53.11,135.5Z"/><path class="cls-31" d="M131,230.86l-.67,1c-.3-.27-.72-.48-.88-.81-.64-1.27-1.19-2.58-1.77-3.88-.72-5.66-1.46-11.32-2.14-17-.33-2.74-.55-5.5-.82-8.25a10.46,10.46,0,0,1,1.06,1.25,14.64,14.64,0,0,1,.78,1.59c.31-.47.64-.92.92-1.4a2.57,2.57,0,0,0,.18-.7c.37,2.46.78,4.92,1.09,7.39q1.14,9,2.19,18C131.07,229,131,229.93,131,230.86Z"/><path class="cls-32" d="M53.11,135.5c-.78-1.83-1.9-3.59-2.25-5.49s1.46-1.46,2.62-1.53l10,1.1c-1.22-.13-1.69.37-1.41,1.61.35,1.52.54,3.08,1,4.56.12.4,1,.57,1.52.84Z"/><path class="cls-27" d="M124,245.72l-.4-.39,1.9-.72.69.49c-.2.16-.37.42-.6.47A14,14,0,0,1,124,245.72Z"/><path class="cls-25" d="M108.77,134.4l-1.49-.34Z"/><path class="cls-24" d="M3.37,122.52l1.13-.28Z"/><path class="cls-27" d="M131.81,243.51l-1.16.31Z"/><path class="cls-27" d="M127.35,244.24l-1.15.32Z"/><path class="cls-27" d="M129.6,243.89l-1.17.3Z"/><path class="cls-24" d="M2.73,122.94l.66-.42Z"/><path class="cls-33" d="M216,265.75c6-1.41,12-2.8,17.92-4.22,2.92-.7,5.84-1.45,8.75-2.18.94-.24,1.86-.45,2.24.82l-33.84,8.17L183.75,275c-2.22.54-4.44,1.05-6.66,1.58a10.91,10.91,0,0,0-3,.76h0l-1.54-.43a1.37,1.37,0,0,1,.35,0c.22-.19.54-.12.77-.3q20-5,40.06-10.08C214.51,266.27,215.26,266,216,265.75Z"/><path class="cls-9" d="M154.39,280.93l.78-.32.34,0,1.14-.35.71,0h1.47c-4.22,1.28-8.37,2.54-13,2-8.72-1.09-17.49-1.77-26.23-2.74-9.16-1-18.29-2.2-27.45-3.24-6.23-.71-12.48-1.26-18.71-1.93S61,272.79,54.81,272.1c-6-.67-12.09-1.27-18.14-1.92a5.51,5.51,0,0,1-1-.33l.05-.07c1.22-.86,2.6-.56,3.91-.41,3.64.42,7.3.72,10.91,1.36a16,16,0,0,0,2.94,0q25.5,2.78,51,5.6c11.9,1.33,23.82,2.56,35.7,4.07a3.42,3.42,0,0,1,2.37.88h9.29l.72-.28a2.31,2.31,0,0,1,.37,0A1.11,1.11,0,0,0,154,281,2.06,2.06,0,0,0,154.39,280.93Z"/><path class="cls-34" d="M28,270.59l-.34-.14-.77-.31c1.44.05,2.89,0,4.32.15,6.67.68,13.34,1.4,20,2.12q11.3,1.21,22.58,2.46l18.36,2,3.67.41c.46.35,1.06,0,1.53.3l1.81.08c.46.34,1.06,0,1.52.3l1.44.05c.58.41,1.31,0,1.9.32l1.44.06c.71.42,1.55-.07,2.26.32l1.08.06c.59.38,1.31-.05,1.89.31l.7,0c-2.16,0-4.34,0-6.49-.16-4.09-.36-8.16-.87-12.24-1.33s-7.91-.92-11.87-1.35-7.93-.82-11.89-1.24c-4.21-.45-8.41-.95-12.61-1.35-3.55-.34-7.1-.56-10.65-.83Z"/><path class="cls-6" d="M107.68,278.69l-2.26-.32Z"/><path class="cls-6" d="M104,278.31l-1.9-.32Z"/><path class="cls-6" d="M110.65,279.06l-1.89-.31Z"/><path class="cls-6" d="M100.64,277.94l-1.52-.3Z"/><path class="cls-6" d="M97.31,277.56l-1.53-.3Z"/><path class="cls-35" d="M4.91,158.89l.41-.91c1.43,1.56,3,3.16,4.4,4.84a16.68,16.68,0,0,1,1.43,2.38l1.17,11.49c-.86.66-1.5,0-2.17-.37s-1.26-1.18-2.26-1.51A33.1,33.1,0,0,0,8.2,179c.05,1.11.77,2.44-.67,3.27Z"/><path class="cls-36" d="M7.53,182.25q-.13-3.34-.25-6.69c0-.53,0-1.07,0-1.6a13.45,13.45,0,0,1,1.45.62c1.2.68,2.37,1.41,3.56,2.11q.7,6.12,1.43,12.24a4.38,4.38,0,0,0-5.12,0c-.52-.92,0-2-.44-3.21,0,.06-.15.45.06.32a1.35,1.35,0,0,1-.09,1.47Z"/><path class="cls-37" d="M8.16,187.56l.18-1.82L9,189c1,1.83.65,3.93,1.1,5.87a14.08,14.08,0,0,1,.19,2.51,5.18,5.18,0,0,0,.24,1.56q2.32,20.94,4.6,41.89c.37,3.61.69,7.23,1.23,10.83a17.06,17.06,0,0,1,.23,2.94,4.24,4.24,0,0,0,.13,1.46,4.23,4.23,0,0,1,.12,1.12,2.93,2.93,0,0,1-.13.83,1.91,1.91,0,0,1-.7,1.15q-.72-6.06-1.45-12.11c-.21-1.71-.44-3.42-.66-5.13-.84-8.1-1.66-16.21-2.51-24.31Q9.78,202.56,8.16,187.56Z"/><path class="cls-11" d="M7.8,191.17c-.1-.51-.2-1-.29-1.52C7.6,190.16,7.7,190.66,7.8,191.17Z"/><path class="cls-11" d="M8.54,197.47l-.3-1.14Z"/><path class="cls-11" d="M8.18,194.51l-.29-.43Z"/><path class="cls-4" d="M174.08,277.29l3-.76Z"/><path class="cls-38" d="M53.48,271.3c-4.51-.45-9-.93-13.54-1.35-1.41-.13-2.83-.12-4.24-.17-2.79-.36-5.57-.73-8.35-1.07a16.47,16.47,0,0,1-3.83-.45c-2.45-.95-.73-3.2-1.17-4.8-.27-.95.2-1.54,1.3-1.43a5.72,5.72,0,0,0,.92,0,3.14,3.14,0,0,1,2.64-.44c2.56.31,5.14.46,7.7.75,4.52.54,9.06.81,13.56,1.38.72.09,1.5,0,2.06.61.07.63-.3.51-.33.5a25,25,0,0,1,3.32.67c.53.1,1.14.31,1.18,1s-.54.95-1.05,1.12c-1.92.67-4,.69-5.94,1.22a5,5,0,0,0-2.05.62c2.24.55,4.28.66,6.28,1C52.53,270.54,53.37,270.3,53.48,271.3Z"/><path class="cls-16" d="M34.93,262.77,24.57,262a14,14,0,0,0-2.64-.26c-.39,0-.87.6-1.05,1a8.12,8.12,0,0,0-.34,1.93.86.86,0,0,1-.39-.43,5.81,5.81,0,0,1-.06-2.59,1.92,1.92,0,0,1,.22-.51,1.8,1.8,0,0,1,.39-.39,3.14,3.14,0,0,1,.73-.31c.24-.09.49-.17.73-.24a6,6,0,0,1,1.27-.13,4.93,4.93,0,0,0,1.47-.21,6.4,6.4,0,0,1,1-.17,6.61,6.61,0,0,0,1-.22,9,9,0,0,1,1.27-.17,6.86,6.86,0,0,0,1-.22,8.35,8.35,0,0,1,1.57-.15,4.28,4.28,0,0,0,1.28-.2,6.19,6.19,0,0,1,1.05-.16,6.83,6.83,0,0,0,1.34-.23c.49-.14.94.15,1.42.14s1.18-.15,1.74.18c5.05-.55,10.13-.95,15.16-1.69,10-1.46,20-3.11,30-4.69l.15.16c.21,1-.58.92-1.12,1.09a89.75,89.75,0,0,1-12.16,2.26c-7.85,1.23-15.68,2.57-23.52,3.79a3.49,3.49,0,0,0-1.7.69,5.53,5.53,0,0,1-3,1.12A29.28,29.28,0,0,0,34.93,262.77Z"/><path class="cls-39" d="M20.49,261.3l-.11,2.88c-.3.74.13,1.57-.31,2.31a2.74,2.74,0,0,1-1.78-.8l-1.95-4.36c-.27-.35,0-.82-.28-1.17L16,259.11l.38-1.12a.82.82,0,0,1,.36.56,3.65,3.65,0,0,0,.27,1.08l.26.37c.66.7,1.42.42,2.17.23.5-.11,1-.38,1.51-.05a.59.59,0,0,1-.08.74h0A1.8,1.8,0,0,0,20.49,261.3Z"/><path class="cls-40" d="M18.29,265.69c2,1.35,1.75-.51,2.09-1.51.05.17.11.34.16.51-.19.7-.37,1.41-.56,2.11Z"/><path class="cls-37" d="M16.06,260.16c.1.39.19.78.28,1.17l-.26-.12Z"/><path class="cls-41" d="M135.45,259q.48,3,1,6c0,.18.15.37.11.53-.59,2.4-1.2,4.8-1.8,7.2-.84.74-1.81.5-2.77.39a4.31,4.31,0,0,0-1.55-.21c-2.29-.28-4.66.07-6.84-1,1.44-1.2,1.54-2.9,2-4.56.73-2.5,2-4.85,3-7.31a1.84,1.84,0,0,1,.77-.34,5,5,0,0,0,1.31-.32,14,14,0,0,1,2.31-.69,1.24,1.24,0,0,1,1,.27Z"/><path class="cls-42" d="M171.12,249l4.87.71-1.22.8c-2.75-.56-5.55-.37-8.32-.6.52.16,1.13-.18,2,.63-2.82,1-5.73,0-8.2,1.22-1.71.07-3.45-.14-5.12.47l.06.48a1,1,0,0,1-1.48.07,3.1,3.1,0,0,0-.25-1.09c-1.86.25-3.62-.73-5.37-.4.71.22,1.8-.57,2.33.7a1.42,1.42,0,0,1-1.27.62c-1.57-.4-3.3.44-4.77-.66-.08-.74.63-.9,1-1.33a3.43,3.43,0,0,1,.68-.4c-.92.16-2.16-.17-3.32-.06.57.14,1.49-.36,1.77.73a1.48,1.48,0,0,1-1.26.6c-2.72.08-5.44-.73-8.16,0-1.19-.06-2.48.06-2.93-1.47a1.59,1.59,0,0,1,.24-.51,1.28,1.28,0,0,1,1.14-.67c1.75.15,3.44.87,5,.53-.64-.24-1.76.56-2.38-.62.36-.61,1-.77,1.58-1.11.67-.1,1.32-.26,2-.31-1.74.12-3.47.7-5.21.06-.52-.61,0-.66.42-.77s.9.27,1.21-.25a4.83,4.83,0,0,1,1.41-.28c2.8.28,5.59.63,8.13.93l-1.29.31,0,.41a47,47,0,0,0,4.74.15,35,35,0,0,1,5-.37l-3.38.86,0,.31h3.63a.37.37,0,0,1,.15.31c0,.12,0,.18,0,.18a2.41,2.41,0,0,1-1,.92,4.28,4.28,0,0,1-1.38.2c2.05-.1,3.94.48,5.68.17-1-.18-2.34.51-3.45-.43,0-.69.66-.7,1-1,.28-.19.67-.09.95-.31h.7c.13.07.18.15.14.23s-.09.12-.13.12a31.68,31.68,0,0,0,5.42.75c2.07-.07,4.11-.7,6.18-1A12.7,12.7,0,0,1,171.12,249Z"/><path class="cls-43" d="M153.59,252.44l1.56.27,4,.3v.36l-19.59,3.47a2.47,2.47,0,0,1-2.39-.2c-.62-.46-1-1.07-.31-1.81a7.5,7.5,0,0,1,3.12-.72,4.54,4.54,0,0,0,1.1-.2c.27-.07.55-.13.83-.18,1.13-.26,2.3-.3,3.41-.65,2-.67,4.22-.37,6.25-1.1A1.72,1.72,0,0,1,153.59,252.44Z"/><path class="cls-44" d="M160,251.29l7.19-1.06-1.22-.16v-.23c2.68,0,5.35,0,8,0,.28,0,.54.41.81.64a29.26,29.26,0,0,0-3.25.09,8.09,8.09,0,0,0-1.92.74c-.34.21-.8,0-1.11.29l-1.4-.06a42,42,0,0,0-4.61.44C161.57,252,160.51,252.57,160,251.29Z"/><path class="cls-45" d="M137,255.05c-.16,2.08,1.4,1.66,2.59,1.79L134,257.93c-.87.63-1.63.2-2.4-.22-.65-.71-.79-1.58.16-1.94C133.42,255.15,135.12,254.39,137,255.05Z"/><path class="cls-46" d="M160,251.29l2.64.33a6.67,6.67,0,0,1,2.95,0c-.16.87-.89.41-1.17.78l-9.3-.12a17.07,17.07,0,0,1,2.49-.93A12.7,12.7,0,0,1,160,251.29Z"/><path class="cls-47" d="M131.78,257.56l2.23.37,0,1.1-1.07.06c-1.82-.72-3.74-.54-5.63-.7a4.68,4.68,0,0,1-2.63-.76c-.3-1,.37-1.13,1.06-1.15s1.54.16,2.31.18A9.44,9.44,0,0,1,131.78,257.56Z"/><path class="cls-42" d="M164.39,252.36l1.17-.74h-3l4.49-.05Z"/><path class="cls-41" d="M136.58,258.74l-1.13.29Z"/><path class="cls-42" d="M168.49,251.64l1.11-.3Z"/><path class="cls-48" d="M43.85,259.78c3-.61,6.07-1.31,9.13-1.82,8.7-1.43,17.42-2.76,26.12-4.21a24.33,24.33,0,0,0,3.77-1.29c4.29-.46,8.6-.79,12.87-1.4,7.68-1.09,15.35-2.33,23-3.52l.45.44c-.45,1.16-1.66.63-2.43,1.08-5.6,1-11.23,1.72-16.82,2.73-5,.91-10.14,1.45-15.17,2.4a33.47,33.47,0,0,0-4.78.86l-.6.06c-2,.22-4,.57-6,.88a7.13,7.13,0,0,1-1.11.18,5.14,5.14,0,0,0-1.1.24,5.45,5.45,0,0,1-.58.14c-6.94.9-13.78,2.47-20.74,3.23a4.75,4.75,0,0,1-.63.14C47.45,260.15,45.62,260.88,43.85,259.78Z"/><path class="cls-27" d="M122.85,246l1.14-.3Z"/><path class="cls-49" d="M136.14,246.38l.24.43-2,.33c-.3.45-.83.05-1.14.31.3-.1.63-.16.87.19-.39,1.09-1.66.55-2.27,1.24-1.2.38-2.29.39-3.12-.78-.61-.85-1.85-.09-2.49-.92l7-1.08Z"/><path class="cls-50" d="M157,249.06c0-.12,0-.23,0-.35l4.81-.84c0,.16,0,.46,0,.46C160.21,248.59,158.61,248.82,157,249.06Z"/><path class="cls-18" d="M156.29,248.7l-.82.38a.7.7,0,0,1-1-.09l-.08-.29Z"/><path class="cls-47" d="M126.19,247.18a8.32,8.32,0,0,1,1.8,0c.46.09,1.73-.58,1.13.9l2.67.54a.62.62,0,0,1,.81,0,1.08,1.08,0,0,1-.1,1.12h0a1.3,1.3,0,0,1-.77.3,2.36,2.36,0,0,1-.54-.12c-1.29-.87-2.94,0-4.27-.84.73.4,1.49.8,1.17,1.84a1.07,1.07,0,0,1-1.06.12,8.16,8.16,0,0,0-4.54-.53c2.12.31,4.31.27,6.33,1.08a2.23,2.23,0,0,1,.48.26,1.25,1.25,0,0,1,.31.47.53.53,0,0,1-.12.51,1.28,1.28,0,0,1-.5.2c-1.86,0-3.6-.77-5.49-.87-.08.54.84.82.38,1.39a1.32,1.32,0,0,1-1.62.46,10.86,10.86,0,0,1,1.73.55c.56.34,1.33.26,2,1-2.56,1.72-4.85.2-7.43-.7a3.17,3.17,0,0,0,2.57,1.29c1.07.21,2.43-.07,3.06,1.27a2.56,2.56,0,0,0,1.57,1.18c.61.22,1.24.49,1,1.28a1.13,1.13,0,0,1-1.69.58c-1.75-.79-3.61-.37-5.46-.61,1.35.2,1.81.76.85,1.91a1.54,1.54,0,0,1-1.06.26c-1.46-1.18-3.17-.31-4.75-.5-.78-.09-.09,1.12-.71,1.43a1.89,1.89,0,0,1-.51.21c-1.4-.09-2.71-.75-4.16-.51-.37.07-.66-.3-.66-.74.16-.64.75-.74,1.52-1.14-1.16.46-2,.81-3,.34.07-.94.07-.94,1.44-1.32-.9,0-1.65.18-2.41.14s-1.21-.18-1,1c.14.88-.92.88-1.55.7a7.38,7.38,0,0,0-4,0,2.14,2.14,0,0,1-2.1-.44,5.55,5.55,0,0,0-4.62-1.43c.5,1.43-.43,1.73-1.55,1.56-2.74-.44-5.52-.6-8.23-1.27a32.78,32.78,0,0,0-5.87-.53c-.58,0-1.8.49-1.51-1,.06-.31-.29-.08-.44-.07a8,8,0,0,1-3.47-.34c-.6-.24-1.53-.5-.24-1.22.4-.22-.56-.34-.23-.73h0c.19-.23.51-.16.72-.32l1.06-.09a.79.79,0,0,1,.88,0c1.87,1.27,4.2,1.16,6.19,2.06s4.19.8,6.33,1a8.58,8.58,0,0,1,2,.17c-1.77-.33-3.59-.17-5.36-.51-.41-.08-1,0-1-.55s.56-.63,1-.77c-1.62.56-3.17,0-4.72-.17-.29,0-.65-.16-.71-.49-.08-.49.35-.6.7-.66.62-.12.29-.08.12-.47-.29-.66.74-.22,1-.61l.37,0c.92.35,2.29-.38,2.73,1.13,2.29-.07,4.22,1.55,6.53,1.33.33,0,1,.19.8-.6s-.66-.23-.89-.18c-1.38.29-2.69-.22-4-.23a.75.75,0,0,1-.8-.62.63.63,0,0,1,.29-.62c.19-.15.34-.8.22-.9,3.11-.58,6.21-1.21,9.33-1.72,7.36-1.21,14.74-2.35,22.12-3.52.24,0,.49,0,.73,0,1.2-.38,1.77.57,2.49,1.21,0,.21.42-.07.18,0,0,0,0,0,0-.09-.26-.69.18-1,.7-.95.87.09,0-.76.48-.77l.62-.14c1.65-.12,3.35.07,4.92-.69Z"/><path class="cls-51" d="M120.65,248a4.4,4.4,0,0,1-.23,1c-.13.27-.37.62-.61.67a2.38,2.38,0,0,1-1.35-.06,12.14,12.14,0,0,1-1.61-1l2.37-.63Z"/><path class="cls-51" d="M126.19,247.17c-1.46,1.54-3.23.85-4.92.69Z"/><path class="cls-22" d="M131.78,272.75l2.95,0c1.61.25,3.21.55,4.82.72s3.53.31,5.29.38c1.19,0,1.6.65,1.66,1.73a34.15,34.15,0,0,0,.35,4.29c.21,1.14-.16,1.45-1.2,1.42s-2.09,0-3.13,0c-5.84-.73-11.68-1.49-17.52-2.16-4.94-.57-9.89-1-14.83-1.56-6.16-.69-12.3-1.46-18.46-2.14-5.12-.56-10.26-1-15.38-1.58-3.9-.42-7.79-.95-11.69-1.39-2.68-.3-5.37-.54-8-.82-1-.11-2.07-.25-3.11-.37-2.38-.37-4.77-.72-7.15-1.13a9.64,9.64,0,0,1-1.6-.59c.49-.37.92-.95,1.46-1.07,1.84-.4,3.72-.59,5.57-.94.93-.18,1.81-.52,2.72-.79l0-.48-5.41-1.55,1.54-.17a2.83,2.83,0,0,1,2.42-.33,4.48,4.48,0,0,0,1.86.19c3.51.05,7,.5,10.49.9,3.11.38,6.23.58,9.35.91,8.14.86,16.29,1.59,24.43,2.44,2.2.22,4.41.41,6.6.71,4.41.45,8.81.93,13.22,1.36,1.56.15,3.21,0,4.64.91l7.05.75C131,272.76,131.45,272.47,131.78,272.75Z"/><path class="cls-4" d="M173.69,276.54l-.77.3Z"/><path class="cls-21" d="M154,281l-1.14.07.73-.1Z"/><path class="cls-40" d="M20.72,260.25l-1.34.31c-1.05.33-2,.32-2.65-.75h0c-.31-.32,0-.82-.36-1.12l0-.7.06-.8c3-1.38,5.62-3.7,9.07-4.18.54-.08.23-.41.13-.66,3-.48,6-1,9-1.44q11.4-1.6,22.8-3.14c2.62-.36,5.24-.65,7.86-1,.45-.35,1.05,0,1.51-.31l1.43-.08c.35-.25.81,0,1.16-.29l1.1-.06c.45-.35,1,0,1.49-.3l1.45-.08c.65-.18,1.41-.49,1.71.4s-.47,1.17-1,1.53a11,11,0,0,1-1.64.84c-6.46,2.57-12.91,5-20,5.5-4.37.3-8.83.6-13.06,2-2.33.77-4.55,1.89-7.06,2-.65,0-1,.62-1.54,1-3.06.58-6.14,1.05-9.22,1.53A1.45,1.45,0,0,1,20.72,260.25Z"/><path class="cls-52" d="M9.74,197.48l-.05-2.59c.21-1,.89-.62,1.33-.35,1.85,1.12,3.72,2.27,3.86,4.79q2.24,20,4.48,40c.15.86.65,1.82-.7,2.23-3.2,1-3.19,1-4.1-.73q-1.08-9.41-2.15-18.82c-.4-3.48-.78-7-1.13-10.43-.43-4.34-.81-8.68-1.22-13C9.76,198.29,10,197.8,9.74,197.48Z"/><path class="cls-53" d="M30.84,258.66a17,17,0,0,1,2.48-1.42c1-.37,2-.39,3-.72a41.6,41.6,0,0,1,10.87-2.41,80.76,80.76,0,0,0,14.37-2.48,121.65,121.65,0,0,0,12.23-4.43c.44-.17.75-.68,1.13-1l-1.46-.49c3-.48,5.9-1,8.86-1.43,2.25-.33,4.51-.53,6.76-.78.44-.37,1,0,1.49-.32l1.47-.06c1.27-.28,1,.42.65,1.08a3.74,3.74,0,0,1-1.37,1.22,41.23,41.23,0,0,0-6.3,4.77c-3.55.61-7.1,1.26-10.66,1.84-6,1-12,1.88-18,2.8Q45.87,256.4,35.34,258A6.89,6.89,0,0,1,30.84,258.66Z"/><path class="cls-54" d="M85,250.16c1.51-3,4.74-3.89,7-5.92.5-.44,1.2-.78,0-1.15,3-.49,6-1,9-1.45,1.33-.2,2.67-.27,4-.4.44-.37,1,0,1.49-.33l1.11,0c.43-.37,1,0,1.49-.33l1.47,0c.24.39.75,1.06.67,1.14a15.48,15.48,0,0,1-2.91,2.59c-2,1.22-4.18,2.23-6.28,3.32-2.65.45-5.29.95-8,1.35C91.1,249.36,88.05,249.74,85,250.16Z"/><path class="cls-55" d="M14.56,240.87c.78.69,1.49,1.9,2.56.3a.55.55,0,0,1,.49-.15c1.79.72,1.78-.45,1.75-1.65.36,2.67.75,5.33,1.06,8,.2,1.65.29,3.31.42,5a2.79,2.79,0,0,0,.37.4h0a.47.47,0,0,0,.73,0l.73,0c.57-.4,1.29,0,1.86-.32l1.08-.07,1.28.68-1.3.46c-1.68.65-3.36,1.29-5,2-1.39.56-2.76,1.16-4.14,1.74l0-1.1c-.33-.31,0-.8-.33-1.12Q15.3,247.92,14.56,240.87Z"/><path class="cls-56" d="M14.88,199.33a8.83,8.83,0,0,0-4.09-4.43c-.27-.16-.73,0-1.1,0-.24-2-.49-4-.73-5.94.52-.5,1.07-1.42,1.56-1.4,1.16.07,2.61-.11,3.23,1.38C14.13,192.4,14.5,195.86,14.88,199.33Z"/><path class="cls-29" d="M75,137.39l2.62.35Z"/><path class="cls-25" d="M106.86,140.37l2.27.32Z"/><path class="cls-40" d="M24.53,252.42l-1.86.32Z"/><path class="cls-27" d="M106.53,240.91l-1.49.33Z"/><path class="cls-53" d="M72,245.76l-1.49.3Z"/><path class="cls-54" d="M90.57,243.15l-1.49.32Z"/><path class="cls-27" d="M109.13,240.54l-1.49.33Z"/><path class="cls-53" d="M66.83,246.49l-1.51.31Z"/><path class="cls-53" d="M69.42,246.12l-1.16.29Z"/><path class="cls-40" d="M21.94,252.76l-.73,0Z"/><path class="cls-40" d="M21.21,252.75c-.12-.14-.24-.27-.37-.4C21,252.48,21.09,252.61,21.21,252.75Z"/><path class="cls-37" d="M30.84,258.66l4.5-.7.34.36c.12.09.16.17.11.24s-.08.12-.12.12l-1.44.05c-.34.26-.84,0-1.15.33l-1.09,0c-.33.28-.82,0-1.14.33l-1.81.06c-.24.15-.58.08-.79.32l-1.44.05c-.24.15-.57.08-.78.31l-1.08,0c-.46.34-1.08-.07-1.52.34l-1.43,0a.84.84,0,0,0-.42.32h-.74l-.12-.67Z"/><path class="cls-40" d="M35.67,258.68c0-.12,0-.24,0-.36l1.86.36Z"/><path class="cls-56" d="M9.74,197.48l.32,1.13Z"/><path class="cls-40" d="M16.05,255l.33,1.12Z"/><path class="cls-57" d="M53.12,264.67l-2.53-.09-9.28-1.07-6.38-.74c.55-.37,1-.95,1.64-1.08,2.07-.45,4.17-.72,6.24-1.14.39-.08.7-.5,1-.76l5.65-.31c1.3.94,2.88.66,4.28.78,4.6.37,9.17.93,13.77,1.26,2.75.2,5.51.46,8.26.77a1.69,1.69,0,0,1,1,.42c-.11,1.26-1.23,1.12-1.89,1.06-2.47-.22-4.88.34-7.32.43-.44,0-1.26-.18-1,.55.57,1.74-.45,1.16-1.24,1L54.65,265C54.19,264.62,53.59,265,53.12,264.67Z"/><path class="cls-40" d="M23.43,260.54,25,260.2Z"/><path class="cls-40" d="M33.08,259.06l1.15-.33Z"/><path class="cls-40" d="M30.85,259.42l1.14-.33Z"/><path class="cls-40" d="M28.25,259.8l.79-.32Z"/><path class="cls-40" d="M26,260.16l.78-.31Z"/><path class="cls-40" d="M21.58,260.91l.42-.32Z"/><path class="cls-37" d="M20.49,261.3l.35-.38Z"/><path class="cls-37" d="M16.73,259.81l2.65.75C18.29,261,17.23,261.4,16.73,259.81Z"/><path class="cls-37" d="M16.38,258.69l.36,1.12Z"/><path class="cls-58" d="M123.6,271.67l-14-1.39c-1.26-.13-2.52-.31-3.77-.46,1.09-1.6,2.94-2.11,4.48-3.06a7.54,7.54,0,0,0,2.31-1.77c1.08-1.44,2.85-1.91,4.28-2.85a6.18,6.18,0,0,1,2.32-.45l1.08-.06a8.12,8.12,0,0,1,3.45-1.09,16,16,0,0,0,3.93-.64,1,1,0,0,1,1.16.31c-.91,2.31-1.87,4.6-2.7,6.94a8.5,8.5,0,0,0-.27,2.33C125.75,270.9,125.22,271.84,123.6,271.67Z"/><path class="cls-59" d="M128.8,260.21l-8.54,1.42c.81-1.35-.05-1.56-1.26-1.61,2.09-.65,4-1.08,6,0a2.21,2.21,0,0,0,1.23.05c.1,0,.26-.55.22-.57a7.8,7.8,0,0,1-.92-.43c-.54-.46-1-1-1.55-1.5a.62.62,0,0,1,.79-.05c2.07.15,4.15.21,6.2.48.69.09,1.31.72,2,1.1l-2.26.75c-.35.25-.82,0-1.16.3Z"/><path class="cls-58" d="M129.49,260.14l1.16-.3Z"/><path class="cls-21" d="M131.78,272.75l-1.13-.33Z"/><path class="cls-49" d="M128,250.88l-1.62-2.2,5,1.07a.57.57,0,0,1-.62.18,1.06,1.06,0,0,0,1-.15h.74c.14,1.45,1.49,1,2.28,1.47a2.06,2.06,0,0,1,1.87.08c-.31,1-1.15.81-1.85.84-1.66.05-3.33,0-5,0a2.8,2.8,0,0,1-.64-.13h0C128.85,251.57,127.48,252.17,128,250.88Z"/><path class="cls-15" d="M153.59,252.44l-8.46,1.15a4.4,4.4,0,0,1-1.77-.09c-.46,0-1.11.05-1.15-.55s.63-.58,1.07-.69c1.95.25,3.9,0,5.85.09l1.25-.42a5.39,5.39,0,0,1,3.27-.27Z"/><path class="cls-60" d="M149.13,252.35l-5.86.38c-.71-.47-1.39.18-2.1.06-.34-.09-.76-.12-.82-.57s.31-.54.59-.58c1.12-.17,2.26-.62,3.36.08Z"/><path class="cls-49" d="M144.3,251.72c-1.13.1-2.26.19-3.39.31,0,0-.08.19-.13.29l.53.11c-.68,1.36-1.79.72-2.79.6-.64-.58-1.7-1.15,0-1.75,1.57.13,3.13-.28,4.7-.05l1.23-.43a.81.81,0,0,1,1.07.08Z"/><path class="cls-61" d="M154.35,249.84l4.47.49v.27h-7.72l0-.26,2.58-.58C153.92,249.58,154.16,249.55,154.35,249.84Z"/><path class="cls-60" d="M153.65,251.66l-3.27.27-3.77-.44-.09-.33a13,13,0,0,1,2.23-.24c1.63.08,3.26.28,4.9.43,0,0,.07.1.07.14S153.67,251.61,153.65,251.66Z"/><path class="cls-62" d="M145.5,250.88l-1.07-.08-3.4-.42v-.29h6.35v.25Z"/><path class="cls-18" d="M145.6,248.94h7.29v.52h-7.43Z"/><path class="cls-63" d="M143.2,251.23l-4.72.36c-.61-.39-1.38.39-1.95-.28l-1.75-.07C137.59,250.19,140.4,250.84,143.2,251.23Z"/><path class="cls-64" d="M136.21,248.68l4.06.55c-1.18.87-4.36.8-7-.18a1.57,1.57,0,0,1,1.2-.47,11.05,11.05,0,0,1,1.29-.13A.81.81,0,0,1,136.21,248.68Z"/><path class="cls-65" d="M138.91,248.21h6.6v.49H138.9Z"/><path class="cls-66" d="M134,247.59l-.66-.18,1-.27h5.92l0,.27-2.63.55a2.25,2.25,0,0,1-1.45.31C135.44,248.1,134.6,248.18,134,247.59Z"/><path class="cls-67" d="M154.35,249.84l-.68-.08.76-.77,1,.09Z"/><path class="cls-49" d="M134.69,249l-1.42,0-.77.73c0-.37,0-.73,0-1.1C133.29,248.32,134.12,247.77,134.69,249Z"/><path class="cls-68" d="M136.23,248h1.43l-1.45.72a1.8,1.8,0,0,0-.32-.06C135.67,248.23,136,248.1,136.23,248Z"/><path class="cls-64" d="M134.8,250.25c-.11.1-.18.22-.24.21a4.85,4.85,0,0,1-.63-.16,1.12,1.12,0,0,1,.32-.14A3.13,3.13,0,0,1,134.8,250.25Z"/><path class="cls-35" d="M131.78,257.56l-3.71-.37c.46-.88.46-.88,1.49-.82-.4-.33-1.11-.5-.84-1.22s.86-.61,1.41-.65a12.08,12.08,0,0,0,3.28-.29,25.81,25.81,0,0,0,5.85-.73c.81-.25,2-.58,2.48.73l-.7,0c-.21.21-.55.13-.77.33l-3.29.47-4.46.87C131.5,256.12,131.13,256.6,131.78,257.56Z"/><path class="cls-69" d="M141.74,254.21a14.72,14.72,0,0,0-2.63-.25c-2,.15-3.93.45-5.9.69a.28.28,0,0,1-.42-.12c.59-1.92,2-.54,2.93-.85-.21-.08-.57.06-.9-.1a.52.52,0,0,1-.15-.47,1.19,1.19,0,0,1,.43-.3c.5-.14,1-.18,1.53-.36a2.45,2.45,0,0,1,.53-.09,2.16,2.16,0,0,1,1.29.37l2.86-.3,2,.3-.54.05c.05.1.07.28.14.3.75.18,1.5.34,2.26.51Z"/><path class="cls-69" d="M140.27,254.58l.77-.33Z"/><path class="cls-70" d="M132.89,254.59l.32.06c-1.06.1-2.11.2-3.16.33a8.56,8.56,0,0,0-1,.24c1.29,1.46-.91,1.19-1,2A12.61,12.61,0,0,0,126,257c-.41,0-.81.36-1.21.55l-.79.05a22.12,22.12,0,0,0-2.44-1c-1.17-.32-2.37-.5-3.56-.74V255c1.11-.11,2.39-.63,3.3-.25,2.16.9,2.09,1.07,4,.84l-3.61-1.5,2.38-.73c-.47-.31-.65-.45-.85-.57l-1-.6c.39-.18.82-.58,1.18-.52,2,.31,3.88.72,5.83,1.1.41.29.95.15,1.38.4.2.13.44.24.41.52,0,.48-.58.18-.75.44A3.22,3.22,0,0,1,132.89,254.59Z"/><path class="cls-71" d="M71.3,256.1l1.4.7-1.41.59v.29l5.95.38.1.24-2.08.82a64.92,64.92,0,0,1,7,.05c2.77.32,5.49,1,8.23,1.54.18,0,.36.17.53.15.52-.06,1-.16,1.55-.25l-1.19-1.49c1.09.09,2,.11,2.86.27s2.15-.69,2.92.9c.86,1.81,2.59.46,3.93.59.75.08,1.49.22,2.23.25a9.7,9.7,0,0,0,1.51-.17l-1.09-1.32h5.27l-1.76,1.28c.17.21.19.51.36.73a3.38,3.38,0,0,1,.27.36l.1.21c.18.77-.33.78-.86.77s-1.33-.1-2-.17-.3.49-.48.71a5.53,5.53,0,0,1-3.86.62.65.65,0,0,1-.34-.43c0-.4.37-.59.62-.82.43-.76-.27-.43-.47-.44-1.83-.11-3.61.49-5.47.42.31.16.92,0,.57.68a14.48,14.48,0,0,1-6,1.21c-.66,0-1.37,0-1.77-.7.39-1.09-.51-.73-.93-.74-5.54-.19-11-1.14-16.54-1.56-6.38-.48-12.74-1.17-19.1-1.82a2.16,2.16,0,0,1-1.54-.51c.88-.19,1.76-.43,2.65-.56C58.73,257.94,65,257,71.3,256.1Z"/><path class="cls-72" d="M49.8,259.44c4.14.41,8.28.87,12.43,1.2,3.61.3,7.23.44,10.84.67,1.16.08,2.32.25,3.47.37,3.6.36,7.19.71,10.78,1.1a4.23,4.23,0,0,1,2.23.94l-1.65.21a2.28,2.28,0,0,1-1.92.46c-2.69-.3-5.39-.53-8.09-.8a1.31,1.31,0,0,1-1-.49c-3-.34-6-.72-9-1-5.71-.55-11.42-1-17.12-1.59-.48-.05-.9-.67-1.35-1Z"/><path class="cls-71" d="M79.45,254.62c.1.31-2.67.8.41.84l-2.33.91,6.4.59-1.51.63v.32c2,.13,4.08.24,6.12.41a3.55,3.55,0,0,1,1.1.52c-.35.19-.71.56-1,.54-2.43-.19-5.06,0-7.23-.84s-4.72-.49-6.54-2.28c-.38-.38-1.14-.39-1.73-.57Z"/><path class="cls-71" d="M84.67,253.9l1.54.52-1.95.89c2.24,1.24,5-.66,7,1.82-2,.27-3.84,1.37-5.5-.52-.15-.17-.58-.12-.88-.15-1.14-.07-2.35.26-3.1-1.16-.25-.46-1.29-.48-2-.71Z"/><path class="cls-71" d="M72,255.78l-.72.32Z"/><path class="cls-42" d="M136.23,248l-.34.67-1.2.39-2.2-.33-.7,0,2.17-1Z"/><path class="cls-73" d="M76.93,263.1l11,.83c2.76.87,5.33-.16,7.95-.75,1.44-.54,1.35-.53,1.45.8.07,1.08,1.18.32,1.68.72a9.29,9.29,0,0,0,3.82-.13,62.28,62.28,0,0,1,10.85-1.75.56.56,0,0,0,.31-.06c.93-.58,1.89-1,3-.33-3.73,2.44-7,5.58-11.14,7.39l-18.15-1.77c-4.22-.41-8.44-.78-12.65-1.21-3.22-.33-6.43-.73-9.64-1.1h1.07l-.7-1.64c.67-.12,1.33-.26,2-.34.24,0,.49.1.73.08Z"/><path class="cls-74" d="M113.65,262.82c-4.09.84-8.17,1.72-12.28,2.48a9.74,9.74,0,0,1-2.71-.24c.78-.93,1.73-.29,2.63-.23.23,0,.12-.24,0-.21-.78.32-1,0-.72-.74l4.1-.72c.81-.55,1.89.81,2.6-.38l.35-.76c.28-.51.62-.78,1.15-.29.12.19.22.53.37.55C110.66,262.49,112.16,262.65,113.65,262.82Z"/><path class="cls-70" d="M128,250.88l1.13,1.14-8-1.38.11-.65C123.58,249.53,125.8,250.23,128,250.88Z"/><path class="cls-74" d="M116.93,262.43l-3,.33a5,5,0,0,1-.15-1.42,1,1,0,0,1,.74-.57c.65,0,1.36.31,2,.15a2.27,2.27,0,0,1,2.67.76Z"/><path class="cls-75" d="M132.89,254.59l-3.52-.39,1.23-.44c-.14-.09-.29-.18-.42-.28-.33-.23-.65-.47-1-.71l.32,0c.37-.38,1-.63,1.31-.36,1.18,1.09,2.67.27,3.92.78l1.76.45Z"/><path class="cls-76" d="M108.8,261.73l-1.15.29h0a1,1,0,0,0-.38-.28c0-.28,0-.55,0-.82l3.82-.64.16.44Z"/><path class="cls-70" d="M134.76,253.16c-1.19.34-2.32.82-3.46-.31-.31-.31-1.16-.09-1.77-.11v-.35l.18-.19a1.19,1.19,0,0,1,.48-.16,8,8,0,0,1,2.48.12.88.88,0,0,1,.31.35c.12.11-.25.22,0,.33a1.5,1.5,0,0,1,.58-.38,1.35,1.35,0,0,1,1.21.21.36.36,0,0,1,0,.46Z"/><path class="cls-42" d="M131.76,249.78l-1.4.44-.08-.33,1.14-.14Z"/><path class="cls-70" d="M129.16,252h.37l.15.18-.14.19h0Z"/><path class="cls-38" d="M53.12,264.67l1.53.3Z"/><path class="cls-75" d="M132.87,252.75l-2.94-.39a1.63,1.63,0,0,1-.39-.35h0l3.95-.38,3.05-.32,1.95.28,0,1.14H137c-.12,0-.25-.35-.36,0l-1.5.36a3.68,3.68,0,0,0-.38-.31l-1.47-.07C133.12,252.88,133,252.9,132.87,252.75Z"/><path class="cls-49" d="M136.59,252.75l-.05-.26.41.25Z"/><path class="cls-49" d="M134.71,252.8l.38.31-.18,0h-.17Z"/><path class="cls-47" d="M100.6,263.88l1,1.05-2.9.13a5,5,0,0,1-1.1-.06c-.48-.13-.94-.36-1.41-.54l1-1.28H95.85L94.62,263l0-.36c1.52-.22,3-.46,4.56-.65a11.06,11.06,0,0,1,2-.09,5.36,5.36,0,0,1,1.19.35l-1,.84c-.2.23-.56.15-.76.39C100.59,263.64,100.6,263.76,100.6,263.88Z"/><path class="cls-47" d="M107.3,262.78c.38.73.24,1.23-.66,1.08a11,11,0,0,1-1.94-.7l-.82-.24c.14-.16.3-.45.43-.44C105.31,262.54,106.3,262.67,107.3,262.78Z"/><path class="cls-74" d="M100.59,263.52l.76-.39Z"/><path class="cls-74" d="M107.27,261.74l.38.28Z"/><path class="cls-49" d="M132.87,252.75l.37,0-.39.37a.29.29,0,0,1,0-.36Z"/><path class="cls-75" d="M132.88,252.74l0,.36c0-.09-.09-.17-.12-.26S132.83,252.77,132.88,252.74Z"/><path class="cls-49" d="M129.54,252l.39.35-.39,0C129.54,252.25,129.53,252.13,129.54,252Z"/><path class="cls-77" d="M144,45.42a1,1,0,0,1,.09-.33,3.47,3.47,0,0,1,.29-.38h0a1.25,1.25,0,0,0,.37-.39h0a.93.93,0,0,0,.37-.39v0c.27-.17.2-.52.39-.74h0a1.37,1.37,0,0,0,.38-.38h0a1,1,0,0,0,.38-.39h0a.93.93,0,0,0,.38-.38h0a5,5,0,0,0,.76-1.11h0a1,1,0,0,0,.38-.38h0a.82.82,0,0,0,.38-.38h0a.82.82,0,0,0,.38-.38h0a4.65,4.65,0,0,0,.76-1.11h0a1,1,0,0,0,.38-.38h0a1,1,0,0,0,.38-.38h0a1.06,1.06,0,0,0,.38-.38v0a1.15,1.15,0,0,0,.38-.38h0A1.15,1.15,0,0,0,151,37h0a1.25,1.25,0,0,0,.38-.38h0a1,1,0,0,0,.37-.38h0a1,1,0,0,0,.38-.38h0a1,1,0,0,0,.38-.38h0a1.06,1.06,0,0,0,.38-.38v0a1.15,1.15,0,0,0,.38-.38h0a1.15,1.15,0,0,0,.38-.38h0c.55-.46.91-1.71,1.77-1.1s0,1.49-.45,2.16l-.35.42a3.28,3.28,0,0,1-.27.38,3.11,3.11,0,0,1-.29.33l-.15.16-.29.28-.15.13a2.37,2.37,0,0,1-.28.27l-.13.14-.27.26-.14.14-.27.27-.13.14a3.84,3.84,0,0,1-.27.29l-.14.15a3.85,3.85,0,0,1-.27.3l-.14.15a7.12,7.12,0,0,0-.64.81,4.06,4.06,0,0,1-.51.65l-.14.15-.28.29a1.85,1.85,0,0,0-.14.14l-.27.29-.13.15a4.85,4.85,0,0,0-.46.63,3.88,3.88,0,0,1-.23.33,2.61,2.61,0,0,1-.27.31l-.14.15a4,4,0,0,1-.27.31c0,.06-.09.11-.13.16l-.37.5-.23.33-.26.3-.13.13c-.09.1-.18.18-.27.27a1.59,1.59,0,0,0-.13.13,3.07,3.07,0,0,1-.26.25l-.13.13-.24.26-.11.14a5.46,5.46,0,0,0-.27.48,2.27,2.27,0,0,1-.22.32,2.6,2.6,0,0,1-.25.33l-.12.18a6,6,0,0,0-.55,1.28c-1.52,2.81-3.26,5.49-4.87,8.25-.73,1.23-1.64,1.43-3.09,1.19-6.3-1-11.26.5-14.27,6.08a46.92,46.92,0,0,0-4.7,14.66,19.09,19.09,0,0,1-.53,2.71c-.19.6-.55,1.21-1.26,1.14s-.88-.77-1-1.37a7.45,7.45,0,0,1,.16-2.83c-1.42,1.87-2.74,3.32-4,4.82-2.28,2.75-2.35,5.76-.87,8.8a22,22,0,0,0,8.63,9.58,13.21,13.21,0,0,0,7.21,1.87,4,4,0,0,0,3.69-2.31,10.91,10.91,0,0,0,1.27-4.77c.21-5.72-.47-11.39-.89-17.08-.27-3.59-1-7.19-.15-10.81a9.39,9.39,0,0,1,2.82-5.26c.48-.41,1.1-.68,1.66-.18a1,1,0,0,1,0,1.51c-3,3.76-2.37,8-2,12.35s1,8.89,1,13.38c0,2,.43,4,.38,6.06-.1,4.14-1.23,7.64-5.34,9.5a2.28,2.28,0,0,0-1.38,2,78.93,78.93,0,0,0-.49,13.58,87,87,0,0,0,2,14.19,51.78,51.78,0,0,0,14.81,25.84,39,39,0,0,0,8.65,6.22c2,1,2.44.86,3.47-1.08a102.56,102.56,0,0,1,14-20,110.35,110.35,0,0,1,26.81-22A81.81,81.81,0,0,1,210.24,118a9.53,9.53,0,0,1,4.32-.77,1.17,1.17,0,0,1,1.07.6,1.16,1.16,0,0,1-.46,1.31,5,5,0,0,1-2.07,1.15c-11.53,3.5-21.13,10.25-30.35,17.71a91.86,91.86,0,0,0-25.24,31.27,60.13,60.13,0,0,0-5.65,22.34c-.61,8,.34,15.79,1.54,23.62.09.57,0,1.24.59,1.68.74-.3,1.09-1,1.52-1.55a90.79,90.79,0,0,1,8.41-9,2.86,2.86,0,0,1,.41-.37c.53-.38,1.08-1,1.75-.35s.23,1.3-.17,1.85a40.16,40.16,0,0,1-2.73,3.23,83.09,83.09,0,0,0-14.45,21A35,35,0,0,0,145.34,245a39.83,39.83,0,0,0,.26,9.19,6.38,6.38,0,0,0,.1,1l.08.23c.06.14.11.29.18.43l.2.44a3.08,3.08,0,0,1,.19.47,32.45,32.45,0,0,0,6.45,12.28,20.41,20.41,0,0,1,1.66,2.43A41.79,41.79,0,0,0,164.93,282c.45.33.9.64,1.33,1,1.58,1.31,1.56,1.81-.21,2.84a1.39,1.39,0,0,0-.75,1,5.89,5.89,0,0,0,3.58,6.47,70.49,70.49,0,0,0,11.8,2.95,24.37,24.37,0,0,1-3.64-2c-.51-.37-1-.81-.73-1.52s.94-.7,1.56-.64a8.75,8.75,0,0,1,2.77,1,140.6,140.6,0,0,0,31.53,9.93c8.56,1.67,17.2,2.73,25.87,3.63,3.26.34,6.48-.33,9.73-.34,9.37,0,18.57-1.55,27.73-3.35a19.39,19.39,0,0,1,4.66-.82,7.76,7.76,0,0,1,.82-.13,3.44,3.44,0,0,0,1.3-.31c6.71-2.32,13.47-4.51,19.93-7.48,5.38-2.47,10.82-4.91,15.25-9a3.29,3.29,0,0,1,.41-.33c1.25-.76.94-1.27-.28-1.63a5.45,5.45,0,0,0-2.71.34,23.3,23.3,0,0,1-7.09,1,4.23,4.23,0,0,1-1.79-.34,1.14,1.14,0,0,1-.76-1.15c.05-.6.49-.81,1-.91a13.76,13.76,0,0,1,2.94-.1,12.49,12.49,0,0,0,4.16-.66c1.21-.41,1.17-1.06.44-1.91a2.84,2.84,0,0,0-2.35-.82,15.19,15.19,0,0,1-5.58-1.05c-.57-.22-1.28-.51-1.1-1.26s1-.82,1.69-.67a37.79,37.79,0,0,0,3.81.62c1.83.17,2.31-.25,2.43-2.09.26-4,2.36-6.3,5.88-6.52a7.2,7.2,0,0,1,7.91,5.91,5.73,5.73,0,0,1-1.8,5c-.39.42-1,.67-1.09,1.51a2.92,2.92,0,0,0,2.11-1.44,78.62,78.62,0,0,0,15.76-29.09A161.35,161.35,0,0,0,346.9,218a149.61,149.61,0,0,0-5.2-53.58c-1.86-6.43-3.55-12.9-6-19.14-2.82-7.14-6.07-14.09-9.32-21-3.7-7.9-7.44-15.78-12.27-23.07-5.6-8.45-11.49-16.69-18.5-24.05-1.52-1.6-3.38-2.85-4.86-4.5a8.5,8.5,0,0,1-1.07-1.26,1,1,0,0,1,0-1.35,1,1,0,0,1,1.19-.15,5.46,5.46,0,0,1,1.68,1.11c2,1.87,4.23,3.56,6.1,5.55-1.23-4.16-6.69-15.19-10.07-20.55a71.48,71.48,0,0,1-4.16-6.72c0-1.92-1.54-2.92-2.65-4.16a1.86,1.86,0,0,1-.22-.5,1.08,1.08,0,0,1,.68-1.33q3.63,4.86,7.27,9.73a79.67,79.67,0,0,1,8.87,15.47c1.5,3.41,3.45,6.75,4.23,10.33,1,4.71,4.38,7.53,7,11s4.85,7.46,7.25,11.21c1.35,2.11,2.87,4.13,4,6.34,2.18,4.17,4.16,8.44,6.19,12.67,2.92,6.08,6.2,12,8.63,18.29,3,7.71,5.3,15.68,7.81,23.56.76,2.37,1.16,4.85,1.76,7.27,1,4.13,2.21,8.21,3.05,12.37a81.78,81.78,0,0,1,1.31,9.87c.21,2.51,0,5.06.07,7.6s.31,5.11.29,7.67c-.13,17.78-2.59,35.2-8.6,52-2.2,6.18-6.13,11.42-9.82,16.77-1.11,1.61-2.7,3.09-3.19,4.87-.74,2.7-2.61,3-4.75,3.61-1.06.29-1.94,1.36-2.83,2.16-5.69,5.1-12.43,8.45-19.34,11.51a106.33,106.33,0,0,1-22.13,7.24c-7.15,1.42-14.39,2.5-21.64,3.32a153.06,153.06,0,0,1-16.32.76A119.55,119.55,0,0,1,212,305.38c-7.71-1.92-15.3-4.31-23-6.37-1.3-.34-2.76,0-4.12-.15a96.15,96.15,0,0,1-10.47-1.42,58.67,58.67,0,0,1-18-7.31,13.58,13.58,0,0,1-2.84-2.57,3.08,3.08,0,0,1,.42-4.31,12.89,12.89,0,0,1,3.3-2.28c1.34-.64,1.26-1.09.29-2.05a62.87,62.87,0,0,1-11.79-16.52c-3-6-3.67-12.22-2.93-18.77.88-7.81,3.93-14.7,8.18-21.21.66-1,.46-2.74.3-4.1-.5-4-1.42-8-1.7-12.1-.31-4.53-.13-9.09-.09-13.65,0-1.69.24-3.38.34-5.07a49.18,49.18,0,0,1,3.34-14.41c.48-1.26.36-1.92-1.06-2.52a37.19,37.19,0,0,1-13.1-9.37,56.37,56.37,0,0,1-12.8-23,58.17,58.17,0,0,1-2.52-16c0-5,.16-9.9.44-14.84.06-1.21-.21-1.28-1.23-1.49-8.49-1.71-16.57-10.34-16.55-18.22a8,8,0,0,1,2.19-5.5c1.77-2,3.78-3.87,5.11-6.14,1.9-3.24,3.22-6.81,4.9-10.19,2.25-4.53,4.78-8.93,10.37-9.85a47.06,47.06,0,0,1,7.33-.18c.83,0,1.11-.15,1.58-1.07a90.08,90.08,0,0,1,5-7.8c.27-.17.21-.52.4-.74h0a1.15,1.15,0,0,0,.37-.39h0A1,1,0,0,0,144,45.42Z"/><path class="cls-78" d="M154,36.23a13.55,13.55,0,0,0,.93-1.48,6.31,6.31,0,0,0,.35-1.24c-.35.17-.71.33-1.05.51s-.41.25-.61.37a37.5,37.5,0,0,1,4.18-4.18,102.75,102.75,0,0,1,10-6.78A64.41,64.41,0,0,1,186.52,16c4-.85,8-1.85,12-2.47a121.65,121.65,0,0,1,22.81-1.19c.35,0,.7.25,1.05.25,1.49,0,2.8.39,4.14-1.27,3.2-3.94,6.9-7.49,11.67-9.55,4.2-1.81,8.54-2.67,12.91-.42A8.58,8.58,0,0,1,253.46,3c2.07,2.24,4.73,3.06,7.62,3.41a37.33,37.33,0,0,1,14.37,5.19A4.26,4.26,0,0,1,277,13.2a14.44,14.44,0,0,1,1.54,10.53c-.86-.94-.32-2.17-.67-3.17-.18.48.17,1.34-.85,1.36a2.58,2.58,0,0,1-.47-1.92,7.53,7.53,0,0,0-2.08-5.19c-3.84-4.14-8.9-5.58-14.54-6.37.57,1.43,1.61,2.15,2.26,3.13.34.51.79.95,1.09,1.49s.6,1.13.06,1.69-1.24.33-1.85,0a6.75,6.75,0,0,1-1.6-1.51c-2-2.37-4.2-4.64-6.29-7-3.51-3.88-7.65-4.56-12.38-3a23.65,23.65,0,0,0-8.52,5,48.33,48.33,0,0,0-7.28,8A8.26,8.26,0,0,1,224,18c-.41.34-.86.86-1.44.53s-.44-1-.36-1.51c.27-1.94.27-1.88-1.68-2a102.7,102.7,0,0,0-23.62,1.48C187,18.36,177.37,21,168.6,26c-4.56,2.64-9.14,5.31-12.78,9.27C155.35,35.81,154.87,36.49,154,36.23Z"/><path class="cls-79" d="M277.07,21.87c.13-.68.23-1.37.41-2A3.53,3.53,0,0,1,278,19c.16.26.43.52.44.79.09,1.31.1,2.62.13,3.92A20.42,20.42,0,0,1,275,32.54a1.66,1.66,0,0,0,.32,2.49c2.07,2.11,4.1,4.27,6.09,6.45a7.66,7.66,0,0,1,.9,1.73l-.45,1.56c-.89.08-1.26-.62-1.74-1.16-1.8-2-3.59-4-5.46-6-1.55-1.62-1.85-1.55-3.32.07a19.2,19.2,0,0,1-2.56,2.38c-3.19,2.4-5.68,2.3-8.8-.27a26.72,26.72,0,0,1-6-7.88,79.73,79.73,0,0,0-12-16,26.65,26.65,0,0,0-5.15-4.14c-.5-.31-1.27-.63-.91-1.35s1.08-.47,1.68-.33A12.29,12.29,0,0,1,243,13.5a72.08,72.08,0,0,1,14,17.47,31.19,31.19,0,0,0,4.42,6.32c1.7,1.78,3.52,1.91,5.36.28a30.7,30.7,0,0,0,9.38-14C276.28,22.9,276.3,22.16,277.07,21.87Z"/><path class="cls-78" d="M147.33,41l-.76,1.11Z"/><path class="cls-78" d="M149.17,38.8l-.76,1.11Z"/><path class="cls-78" d="M145.49,43.23l-.39.74Z"/><path class="cls-78" d="M143.28,46.18l-.4.74Z"/><path class="cls-78" d="M145.86,42.86l-.38.38Z"/><path class="cls-78" d="M151.39,36.59,151,37Z"/><path class="cls-78" d="M145.11,44l-.37.39Z"/><path class="cls-78" d="M144.75,44.33l-.37.39Z"/><path class="cls-78" d="M144.39,44.71l-.29.38Z"/><path class="cls-78" d="M153.6,34.38l-.38.38Z"/><path class="cls-78" d="M144,45.42l-.38.39Z"/><path class="cls-78" d="M143.64,45.8l-.37.39Z"/><path class="cls-78" d="M153.23,34.75l-.38.38Z"/><path class="cls-78" d="M152.86,35.11l-.38.38Z"/><path class="cls-78" d="M152.49,35.48l-.38.38Z"/><path class="cls-78" d="M152.12,35.85l-.38.38Z"/><path class="cls-78" d="M151.75,36.22l-.37.38Z"/><path class="cls-78" d="M151,37l-.38.38Z"/><path class="cls-78" d="M150.65,37.33l-.38.38Z"/><path class="cls-78" d="M150.28,37.69l-.38.38Z"/><path class="cls-78" d="M149.91,38.06l-.38.38Z"/><path class="cls-78" d="M149.54,38.43l-.38.38Z"/><path class="cls-78" d="M148.43,39.9l-.38.38Z"/><path class="cls-78" d="M148.06,40.27l-.38.38Z"/><path class="cls-78" d="M147.7,40.64l-.38.38Z"/><path class="cls-78" d="M146.59,42.11l-.38.38Z"/><path class="cls-78" d="M146.22,42.48l-.38.39Z"/><path class="cls-80" d="M277.07,21.87c-1.25,5.63-4.31,10.24-8.2,14.36a15,15,0,0,1-2.79,2.36c-1.56,1-3.26,1-4.5-.46a46.36,46.36,0,0,1-4.69-6.32c-4.5-7.7-9.85-14.65-17-20a8,8,0,0,0-3.79-1.26,38,38,0,0,1,8.84,7.91c4.51,5.07,8,10.82,11.57,16.56a21.63,21.63,0,0,0,4.83,5.19c2.27,1.84,4.43,1.66,6.71-.19a34.63,34.63,0,0,0,3.7-3.57c.79-.86,1.33-1,2.18-.08,2.6,2.84,5.28,5.63,7.92,8.43h0a12.66,12.66,0,0,1,3,4.13c3.66,6.44,7.43,12.83,11,19.36a61.66,61.66,0,0,1,4,9.86c-2.46-2.23-4.89-4.5-7.4-6.68a12,12,0,0,0-2.41-1.28,10.66,10.66,0,0,0,1.43,2.27c15.24,14.22,26.1,31.44,34.84,50.18,5.95,12.75,11.74,25.52,15.42,39.17,4.17,15.44,6.81,31,6.21,47.09-.57,15-2.31,29.86-7,44.23-3.14,9.64-8.38,18.11-14.78,25.91-.23.29-.51.53-.75.81-.74.85-1.57,1.53-2.58.5a4.57,4.57,0,0,1,1.18-1.74c1.86-1.68,2.59-3.76,1.82-5.94a6.49,6.49,0,0,0-5.52-4.55c-4.28-.55-7,2-7.11,6.38,0,2.13-.27,2.42-2.45,2.26-1.46-.11-2.9-.51-4.35-.71a4.31,4.31,0,0,0-1.29.24c.3.26.57.68.9.74,2,.38,4.08.74,6.14,1,1.14.13,3.2,1.57,3.19,2.63,0,.35-.61.94-1,1-2.1.36-4.22.6-6.34.85-.55.07-1.12,0-1.65.07-.29.06-.53.37-.79.56.2.22.35.55.59.62a4.33,4.33,0,0,0,1.79.28c2.72-.4,5.42-.93,8.14-1.33a8.85,8.85,0,0,1,2,.15c1.26.75,1.08,1.51,0,2.3h0a114.58,114.58,0,0,1-19.44,8.67,113.22,113.22,0,0,1-21.93,6,2,2,0,0,1-.59-.08,1.63,1.63,0,0,1-.51-.3,2.21,2.21,0,0,1-.39-.42,11.15,11.15,0,0,0-3.36-3.09,6.42,6.42,0,0,0-7.43.19c-.65.46-1.37.84-2,1.33-4.47,3.5-9.12,3-13.82.62a36.42,36.42,0,0,1-5.25-3.39c-4.43-3.32-9.27-4.24-14.56-2.2a33.2,33.2,0,0,1-6.44,2.17,12.4,12.4,0,0,1-9.73-2.38c-2.38-1.74-4.74-3.5-7.11-5.24a18,18,0,0,0-3.49-2.05,5.3,5.3,0,0,0-5.41.49c-.26.18-.51.35-.75.54-2.72,2.29-5.55,2.12-8.55.53a51.81,51.81,0,0,1-14.07-11.7c-4.49-5.05-9.16-9.91-14.07-14.55a21.52,21.52,0,0,0-5.47-3.7,9.24,9.24,0,0,0-6.94-.9c-.4.13-.84.27-1.19-.14h0c-.28-.13-.18-.48-.37-.66-1.83-11.11,1-21.11,6.9-30.52,3.65-5.82,8.1-10.95,12.55-16.1a10.4,10.4,0,0,0,1.18-2.44,11.67,11.67,0,0,0-2.1,1.45c-3,3.29-6,6.64-9,10-.32.36-.65.69-1.3,1.38-.4-2.43-.78-4.51-1.07-6.59-1.43-10-1.85-19.93.23-29.86,2.56-12.25,8.86-22.59,16.9-31.88A108.58,108.58,0,0,1,207,122c2-.91,4.15-1.5,6.22-2.25a5.41,5.41,0,0,0,1.5-.69,3.86,3.86,0,0,0,.71-1.15c-.39-.09-.81-.35-1.16-.27A39.71,39.71,0,0,0,209.3,119,98.93,98.93,0,0,0,180,137a101.93,101.93,0,0,0-24.84,31.21c-.73,1.43-1.58,1-2.56.51a42.83,42.83,0,0,1-14.79-12.2c-7.26-9.17-10.78-19.81-11.65-31.28-.44-5.85,0-11.77.19-17.65a2.55,2.55,0,0,1,1.25-1.91c3.83-1.48,5.3-4.44,5.31-8.23,0-3.62-.18-7.25-.44-10.86-.32-4.41-.81-8.8-1.22-13.2a12.1,12.1,0,0,1,2.42-9,4.27,4.27,0,0,0,.43-1.1c-.43.11-1,.08-1.27.34A7.57,7.57,0,0,0,130,69.44c0,4.59.36,9.18.56,13.77.2,4.29.38,8.58.57,12.88a6.75,6.75,0,0,1-.05,1.1c-.7,5.61-3.19,8.34-9,6.52-7.16-2.22-11.72-7.27-13.6-14.47a7,7,0,0,1,1-4.87,82.51,82.51,0,0,1,5.84-7.46c-.09,1.85-.2,3.15-.2,4.46,0,.37.29.74.45,1.1.28-.35.71-.66.82-1.06a25,25,0,0,0,.49-2.72c.94-5.74,2.43-11.3,5.73-16.19a12.77,12.77,0,0,1,14.32-4.77c1.22.42,1.57-.27,2-1,1.74-2.88,3.45-5.79,5.17-8.69a10.74,10.74,0,0,1,.78-1.09l0,0c.08-.16.23-.27.32-.42h0c.25-.16.15-.56.47-.67l0,0a.63.63,0,0,1,.36-.42v0a1.61,1.61,0,0,1,.32-.42h0a1.46,1.46,0,0,0,.33-.37l0,0a.79.79,0,0,0,.33-.35l0-.05c.37-.25.46-.74.81-1l0,0a1.48,1.48,0,0,1,.35-.4h0a3.16,3.16,0,0,0,.34-.38h0c.34-.3.43-.78.82-1l0,0a.67.67,0,0,1,.36-.41v0a1.09,1.09,0,0,1,.36-.41h0c.1-.14.24-.25.35-.39h0a7.28,7.28,0,0,1,1.21-1.39l0,0a.41.41,0,0,1,.39-.4l0,0a.56.56,0,0,1,.34-.43v0a1.25,1.25,0,0,1,.35-.41h0a3.24,3.24,0,0,1,.36-.38h0c.12-.13.25-.24.36-.38h0a4.17,4.17,0,0,0,.36-.37h0a2,2,0,0,0,.35-.36h0A65.12,65.12,0,0,1,171.31,24c8.69-4.33,18-6.79,27.53-8.34a103.52,103.52,0,0,1,22.93-1.12c1.52.09,2.15.38,1.08,1.84a.84.84,0,0,0-.16.33c-.05.52-.08,1-.12,1.56a4.82,4.82,0,0,0,1.28-.78c1.94-2.29,3.71-4.72,5.75-6.92C233.47,6.4,238,3.23,243.71,2.1a9.15,9.15,0,0,1,8.66,2.37c2.76,2.7,5.26,5.65,7.95,8.41a16.53,16.53,0,0,0,2.75,1.85,18.64,18.64,0,0,0-1.34-2.94c-.7-1.06-1.67-1.95-2.45-3-.09-.12.35-.92.47-.9,6,.83,11.72,2.25,15.75,7.32C277.06,17.19,277.13,19.52,277.07,21.87Z"/><path class="cls-81" d="M153.9,271.43c-2.84-3.73-5.72-7.44-7.2-12-.33-1-.55-2.11-.83-3.16,1.76.19,2.06,1.67,2.63,2.93.16.35.08.94.7.92.24,0,.42-.24.51-.47.24-.57-.25-.74-.58-1-.56-.42-1.11-.89-.78-1.67a1.74,1.74,0,0,1,1.82-1,3.91,3.91,0,0,1,2.31.54c1.76,1.4,4,2.26,5.25,4.24a2.35,2.35,0,0,0,1.78,1.17,4.85,4.85,0,0,1,3.34,2.09c1.26,1.49,3.08,2.53,3.28,4.9.1,1.14,1.66,1.72,2.74,2.3a5.49,5.49,0,0,1,2.59,2.74c.48,1.08.83,2.07-.74,3.16,2.75-.22,3.11,1.51,3.47,3.09.72.05.75-.52,1-.78.84-.74,1.68-.5,1.8.45a2.09,2.09,0,0,0,1.57,1.91A3.47,3.47,0,0,1,180,283.3c.81,1.22.59,1.68-.89,2.06,1,.39,2,1.76,2.91-.19.27-.53,1,.09,1.28.56,1.71,3.08,4.91,3.61,7.85,4.57a1.16,1.16,0,0,0,1.65-.72,3.55,3.55,0,0,1,2.05-2,15.62,15.62,0,0,0,2.45-1.6,3.12,3.12,0,0,1,4.82.87,2.08,2.08,0,0,0,1.7,1.25c3.69,0,5.78,2.35,7.52,5.15a2,2,0,0,0,2.36,1.1c1.6-.29,2.19.44,2.07,2.15,0,.32-.08.62.26.78.52.24.83-.11,1-.49.8-1.36,2.1-1.57,3.51-1.54.78,0,1.6.25,1.8,1,.63,2.38,2.64,2.31,4.29,2.71-1-.41-2.18-.84-2.1-2.28s1.18-2.09,2.45-2.4a4.17,4.17,0,0,0,2.66-1.47,1.61,1.61,0,0,1,1.45-.69c2.73.31,5.58-.09,8.17,1,1.93.82,4,1.55,5,3.73a3,3,0,0,0,2.43,1.5,36.1,36.1,0,0,1,5.12,1.47c3.24,1.15,6.45.2,9.66,0a1.7,1.7,0,0,0,1.32-.93c.73-1.32,2.09-1.87,3.24-2.65,1.57-1.08,2.46-.52,2.48,1.36a1.09,1.09,0,0,0,.11.71s.09.07.16.11c.58-.21.61-.86,1-1.25s1.08-.89,1.62-.49c1.33,1,3,1.26,4.32,2.28v0a1.16,1.16,0,0,1,.08.61c-.28.58-.85.63-1.39.73a140.25,140.25,0,0,1-30.05,2.18c-9.49-.42-19-.65-28.34-2.77-14.22-3.24-28.26-7-41.21-14A149.78,149.78,0,0,1,157,274.53,26.26,26.26,0,0,1,153.9,271.43Z"/><path class="cls-82" d="M153.9,271.43c4.23,3,8.3,6.25,12.72,8.93a115.2,115.2,0,0,0,15.56,8.24A182.1,182.1,0,0,0,203.47,296a210.35,210.35,0,0,0,22.5,4.81c4.79.78,9.74.62,14.62.84a95.33,95.33,0,0,0,10.81.31c7.2-.49,14.38-1.35,21.57-2.08.88-.08,1.76-.28,2.64-.43a.38.38,0,0,1,.47-.06.92.92,0,0,1,.28,0,19.57,19.57,0,0,0,4,3c-6.26,1.1-12.5,2.47-18.8,3.24a198,198,0,0,1-19.77,1.4,90.06,90.06,0,0,1-13.89-1.07c-6.53-.9-13.09-1.84-19.51-3.32s-12.72-3.54-19-5.58c-3.42-1.12-6.68-2.71-10-4.09a4.87,4.87,0,0,0-1.4-.45,6.48,6.48,0,0,0-1.48.26c.27.35.48.83.84,1a50.13,50.13,0,0,1,5,3,8,8,0,0,1-2,0q-6.47-1.69-12.91-3.49a2.75,2.75,0,0,1-2.24-2.76c-.06-1.21-.51-2.4-.58-3.61-.05-1,0-2.13,1.61-1.66.2.05.5-.24.75-.37-.19-.35-.29-.81-.57-1a54.54,54.54,0,0,1-5.2-4.07C158.71,277.12,156.36,274.23,153.9,271.43Z"/><path class="cls-83" d="M275.69,299c-1.4-.47-3-.3-4.1-1.7-.73-.9-1.44-.14-1.88.78a5.72,5.72,0,0,1-1.19,1.28,11.63,11.63,0,0,1-.58-1.69,5.38,5.38,0,0,1,.06-1.38c-.58.09-1.3,0-1.71.31-1.09.84-2,1.9-3.09,2.78a4.59,4.59,0,0,1-2,1.09c-4.38.59-8.72.79-12.88-1.22-1-.47-2.17-.44-3.11-.94a6.91,6.91,0,0,1-1.65-1.88c-.14-.18-.15-.51-.32-.62-2.79-1.75-5.7-3.14-9.12-3-.88,0-1.78-.17-2.66-.13-.49,0-1.26.16-1.41.48-.6,1.28-1.74,1.3-2.84,1.68a8.28,8.28,0,0,0-2.29,1.83c.57.62,1.12,1.27,1.73,1.85a5,5,0,0,0,1.09.61l-.11.46c-1.66-.32-3.33-.61-5-1-.13,0-.11-.52-.24-.74-.44-.72-.8-1.87-1.39-2-1.26-.31-2.84-.36-3.47,1.21-.46,1.12-1.11,1.23-2,.82-1.14-.53-.67-1.2-.09-1.89a1,1,0,0,0,0-.74c-.62-.22-1.42-.68-1.87-.46-1.32.65-1.71.41-2.52-.93-1.64-2.76-3.57-5.49-7.53-5.23-.62,0-1.54-.79-1.91-1.44a2.8,2.8,0,0,0-4-1c-.8.62-1.68,1.13-2.48,1.76s-2.24.69-1.8,2.27c-.88.2-1.88.77-2.61.52-2.42-.83-5.07-1.31-7-3.25a11.3,11.3,0,0,1-1.38-2.3c-.37.73-.56,1.63-1,1.81s-1.13-.5-1.71-.81a4.5,4.5,0,0,1-.45-.31l-1.48-1a10.13,10.13,0,0,0,1.65,0c.26,0,.48-.37.71-.56-.75-.8-1.42-2.13-2.28-2.27-1.24-.2-1.46-.41-1.17-1.55.08-.32-.3-.76-.47-1.15-.27.32-.54.64-.82.94s-.62.63-.93,1c-.3-.4-.76-.76-.86-1.2-.33-1.42-.23-3.21-2.6-2.15-.15.06-.58-.13-.6-.25a1.63,1.63,0,0,1,.07-1c.3-.5,1.16-1.16,1.06-1.33a17.35,17.35,0,0,0-2.37-3.33,10,10,0,0,0-2.43-1.61c-1-.56-1.65-1.19-1.31-2.47a1.5,1.5,0,0,0-.41-1.15,22.08,22.08,0,0,0-2.84-2.8,16.79,16.79,0,0,0-3-1.48c-.44-.2-1.19-.27-1.3-.58-.7-2-2.59-2.72-4.1-3.77a13.42,13.42,0,0,0-3.54-1.64c-.42-.13-1,.42-1.56.65.33.43.64.88,1,1.3s1,.91.91,1a16.61,16.61,0,0,1-1.54,1.72c-.3-.41-.62-.81-.89-1.24-.76-1.2-1.5-2.41-2.26-3.62h0a1,1,0,0,1-.24-.33c0-.15,0-.3-.07-.45,4.63-1.89,8.55,0,11.87,2.83,4.27,3.66,8.22,7.72,12.13,11.77,4.86,5,9.25,10.51,15.22,14.34,1.08.69,2.2,1.35,3.34,1.93,2.58,1.3,5.08,1.33,7.34-.72,2.65-2.41,5.46-2.25,8.26-.42a83.67,83.67,0,0,1,7.62,5.45c4.56,3.78,9.38,4.66,14.87,2.23a25.42,25.42,0,0,1,6.47-2c4.17-.63,7.85.84,11.14,3.35a23.9,23.9,0,0,0,9.22,4.8,9.76,9.76,0,0,0,8.07-1.44q1.35-.94,2.73-1.86c3.55-2.35,7-2,10,1C274.48,297.47,275.06,298.26,275.69,299Z"/><path class="cls-84" d="M280.4,302.37a4.41,4.41,0,0,1-4-3c6.95-1.85,14-3.37,20.82-5.67,6-2,11.77-5,17.65-7.46,1.05-.45,2.15-.79,3.22-1.18a47.33,47.33,0,0,1-5.15,4.06c-9.63,5.67-20,9.59-30.67,12.84-.33.32-.79.07-1.14.29Z"/><path class="cls-85" d="M322.06,282c-3.76.43-7.35-3.58-7.5-7.77s3.9-5.78,6.91-4.41a4.49,4.49,0,0,1,2.87,3.75,5,5,0,0,1-2.27,4.56c-.77.6-1.35.36-1.38-.54a33.29,33.29,0,0,1,.29-3.43c0-.49,0-1,0-1.5-.49.31-1.15.5-1.45.94-1.15,1.66-.57,5.61.94,7C321,281.07,321.47,281.48,322.06,282Z"/><path class="cls-86" d="M163,284.77c.27,2,.56,3.92.77,5.89,0,.23-.54.77-.59.74a85.94,85.94,0,0,1-7.56-4.27c-1.48-1-1.27-2.21.28-3.2a20,20,0,0,1,3.73-1.87C161,281.53,163.5,283.37,163,284.77Z"/><path class="cls-79" d="M284.78,48.89l-3-4.13C283.29,45.78,284.77,46.8,284.78,48.89Z"/><path class="cls-84" d="M318,285.1a1.51,1.51,0,0,0,0-2.3C319.86,283.89,319.86,284,318,285.1Z"/><path class="cls-78" d="M151.5,38.9l-1.21,1.39Z"/><path class="cls-78" d="M149.26,41.45l-.82,1Z"/><path class="cls-78" d="M147.76,43.27l-.81,1Z"/><path class="cls-78" d="M144.81,47,144,48.05Z"/><path class="cls-82" d="M281.09,302.28l1.14-.29Z"/><path class="cls-78" d="M145.59,45.88l-.47.67Z"/><path class="cls-81" d="M145.18,254.83l.37.66Z"/><path class="cls-78" d="M148.09,42.89l-.35.4Z"/><path class="cls-78" d="M146.92,44.34l-.33.35Z"/><path class="cls-78" d="M146.57,44.71l-.33.37Z"/><path class="cls-78" d="M146.23,45.09l-.32.42Z"/><path class="cls-78" d="M145.92,45.49l-.36.42Z"/><path class="cls-78" d="M145.11,46.56l-.32.42Z"/><path class="cls-78" d="M154,36.24l-.35.36Z"/><path class="cls-78" d="M153.6,36.61l-.36.37Z"/><path class="cls-78" d="M153.24,37l-.36.38Z"/><path class="cls-78" d="M152.88,37.36l-.36.38Z"/><path class="cls-78" d="M152.52,37.73l-.35.41Z"/><path class="cls-78" d="M152.18,38.12c-.11.14-.22.29-.34.43C152,38.41,152.07,38.26,152.18,38.12Z"/><path class="cls-81" d="M145.63,256l.24.33Z"/><path class="cls-78" d="M149.6,41.07l-.36.41Z"/><path class="cls-78" d="M151.87,38.53l-.39.4Z"/><path class="cls-78" d="M150.29,40.3l-.35.39Z"/><path class="cls-78" d="M150,40.68l-.36.41Z"/><path class="cls-78" d="M148.43,42.5l-.34.38Z"/><path class="cls-87" d="M270.08,234.36c-.86,12.48-6.05,22.37-17.19,28.67a36.21,36.21,0,0,1-41.42-5.15,25.44,25.44,0,0,1-7.71-16.77c-.33-4.27-.42-8.55-.78-12.81-.47-5.48-2.7-10.29-5.71-14.84-4.06-6.11-8.36-12.15-10.22-19.38A20.27,20.27,0,0,1,199.12,170c6.16-2.45,12.32-2.34,18,1.58a40.68,40.68,0,0,1,14.77,18.77c2,4.81,5.38,7.59,10.52,9,6,1.61,11.77,4.17,16.36,8.67,5.93,5.82,9.95,12.66,10.91,21.06.11.91.28,1.81.34,2.72S270.08,233.5,270.08,234.36Z"/><path class="cls-88" d="M215.47,41.41A11,11,0,0,1,226.56,52.8a10.82,10.82,0,0,1-10.7,10.66c-6.55-.09-11.22-5.29-11.27-10.66C204.53,46,209.3,41.41,215.47,41.41Z"/><path class="cls-89" d="M169.53,117.21c.42-2.42.89-4.73,1.21-7.06a19.54,19.54,0,0,0-.86-9.8,9.66,9.66,0,0,0-6-6.08,6.17,6.17,0,0,1-1.5-.68,5.77,5.77,0,0,1-.94-1c.5-.09,1.07-.4,1.47-.24,1.75.7,3.44,1.54,5.23,2.35.18-2.51.27-5.11.58-7.68.62-5.23,1.85-10.26,5-14.64s7.75-5.83,12.7-6.58c8.07-1.22,15.72.74,23.26,3.33A13.38,13.38,0,0,1,213.05,71c1,.74,1.1.4,1.3-.6.34-1.67.84-3.31,1.34-4.94.07-.24.52-.38.86-.6-.23,2.43-.51,4.71-.66,7-.35,5.51,2.27,9.32,7.12,11.57,3.21,1.5,6.59,2.64,9.9,3.94l1.41.55-.14.68a17.1,17.1,0,0,1-4.29-.66c-3.55-1.49-7-3.27-10.48-4.89-.53-.24-1.43-.52-1.72-.27-3.75,3.16-8.27,4.17-12.92,4.84a32.55,32.55,0,0,0-19.35,9.76c-2.47,2.55-5.14,5-8.87,5.63a6.41,6.41,0,0,1-2.53.13c-1.74-.44-1.79.33-1.65,1.7a22.26,22.26,0,0,1-2,11.48,3,3,0,0,1-.38.62C169.94,117.06,169.8,117.08,169.53,117.21Z"/><path class="cls-90" d="M193.74,231.23c-2,.23-3.1-1.23-4.07-2.58a8.24,8.24,0,0,1-1.47-7.11,4.57,4.57,0,0,1,7.3-2.7,8.5,8.5,0,0,1,3.39,8.08C198.62,229.66,196.61,231.26,193.74,231.23Z"/><path class="cls-91" d="M158.93,75.89a4.61,4.61,0,1,1,.14,9.21,5.18,5.18,0,0,1-4.74-4.94A4.47,4.47,0,0,1,158.93,75.89Z"/><path class="cls-92" d="M186.51,63.84c-1.93.49-3.88,1-5.81,1.47a13.25,13.25,0,0,0-8,6,2.55,2.55,0,0,1-.53.74,6.11,6.11,0,0,1-1.07.48c0-.4-.17-.94,0-1.18a37.7,37.7,0,0,1,4-4.66,12.68,12.68,0,0,1,9.52-3.57c.64,0,1.27.16,1.9.25Z"/><path class="cls-93" d="M198.48,99.4a51.13,51.13,0,0,1-4.91,2.83,11.64,11.64,0,0,1-8.07.74c-.5-.15-.9-.68-1.34-1a5.16,5.16,0,0,1,1.48-.25,16.91,16.91,0,0,0,11-2.24c.37-.22.75-.43,1.13-.62a.76.76,0,0,1,.34,0Z"/><path class="cls-83" d="M276.08,299.35l-.47.06c0-.15.05-.3.07-.45Z"/><path class="cls-94" d="M212.42,51.73a4.2,4.2,0,0,1,4.38-4.19,4.47,4.47,0,0,1,4.56,4.5,4.79,4.79,0,0,1-4.76,4.6C214.28,56.58,212.4,54.38,212.42,51.73Z"/><path class="cls-95" d="M169.26,92.09c.87-4.36,1.44-8.81,2.68-13.07,2.07-7.12,7.24-10.89,14.5-11.67a43,43,0,0,1,26.26,5.09,4.72,4.72,0,0,1,1.64,2.18c.72,1.61,1,3.44,1.93,4.91,1,1.66.49,2.62-1,3.16-3.19,1.21-6.37,2.68-9.7,3.23-7.06,1.16-13.5,3.46-18.91,8.26-2,1.74-3.83,3.62-5.86,5.3a9.73,9.73,0,0,1-3.32,1.89c-4.9,1.46-6.91-.47-7.76-6.05a20.29,20.29,0,0,1,0-3.12Z"/><path class="cls-96" d="M199.51,81.16c-4.28-.75-7.43-2.17-9.48-5.39-.82-1.28-.05-2.74,1.38-2.45,2.79.55,5.52,1.39,8.27,2.14a2.45,2.45,0,0,1,.94.56c1,.87,2.13,1.91,1.34,3.24C201.41,80.19,200.14,80.7,199.51,81.16Z"/><path class="cls-97" d="M182,84.92a23.83,23.83,0,0,1-1.26,4.55A3.1,3.1,0,0,1,178.33,91a3.18,3.18,0,0,1-2.19-1.78,6.29,6.29,0,0,1-.27-3.57A47.11,47.11,0,0,1,178,79.18c.23-.57,1-1,1.49-1.41.45.51,1.15,1,1.32,1.55C181.27,81.12,181.57,83,182,84.92Z"/><path class="cls-98" d="M193.77,74.63c1.72.67,3.77,1.37,5.72,2.29.49.24.64,1.19.94,1.82a5.71,5.71,0,0,1-1.89.61,9.88,9.88,0,0,1-5.94-2.56,9,9,0,0,1-1.16-1.54Z"/><path class="cls-99" d="M180.58,84.3a17.28,17.28,0,0,1-.49,3.53c-.25.71-1.09,1.21-1.66,1.81-.41-.66-1.25-1.37-1.17-2,.34-2.38.94-4.73,1.49-7.07.07-.27.47-.45.72-.67.2.28.52.54.58.85C180.28,82,180.42,83.19,180.58,84.3Z"/><path class="cls-100" d="M29.08,199.72l-7.54-7.06,7.06-7.54.51.47c-2.63,2.82-3.95,4.22-6.59,7l7,6.58Z"/><path class="cls-100" d="M38.45,183.64c-3.12,7.14-4.68,10.7-7.79,17.83l-.59-.31c3.12-7.13,4.68-10.69,7.79-17.82Z"/><path class="cls-100" d="M41.17,198.87a2.82,2.82,0,0,1-1.58.5,3.29,3.29,0,0,1-2.59-1.1,5.1,5.1,0,0,1-1.18-3.45,5,5,0,0,1,1-3.45,3.44,3.44,0,0,1,4-1.11,2.43,2.43,0,0,1,1.13.82l-.14-4.43a1.36,1.36,0,0,0-.19-.73.64.64,0,0,0-.58-.23l-.66,0v-.49l.9,0a2.17,2.17,0,0,0,.81-.19,3.35,3.35,0,0,0,.81-.52c.17,5.19.25,7.78.42,13a.76.76,0,0,0,.19.57.62.62,0,0,0,.49.15l.58,0v.49l-.49,0a3.14,3.14,0,0,0-.77.15,4.9,4.9,0,0,0-.94.4h-.16l0-1.56A3.36,3.36,0,0,1,41.17,198.87Zm1-2.54-.15-4.51a2.41,2.41,0,0,0-1.1-.91,3.08,3.08,0,0,0-1.32-.24,2.14,2.14,0,0,0-1.89,1.21,5.81,5.81,0,0,0-.6,3.06,5.22,5.22,0,0,0,.75,2.89,2.34,2.34,0,0,0,3.42.26A3.74,3.74,0,0,0,42.2,196.33Z"/><path class="cls-100" d="M52.26,194.28l-6.64.21a4.65,4.65,0,0,0,1,3.13,2.89,2.89,0,0,0,2.29.87,2.68,2.68,0,0,0,1.78-.67,3.51,3.51,0,0,0,1-1.55l.42.15a4.18,4.18,0,0,1-1.05,1.8,3.22,3.22,0,0,1-2.31.94A4.12,4.12,0,0,1,45.61,198a4.89,4.89,0,0,1-1.3-3.49,5,5,0,0,1,1.07-3.45,3.74,3.74,0,0,1,2.87-1.44,3.84,3.84,0,0,1,2.74,1A4.92,4.92,0,0,1,52.26,194.28ZM45.6,194l5.25-.17a4.28,4.28,0,0,0-.7-2.73,2.2,2.2,0,0,0-1.88-.88,2.47,2.47,0,0,0-2,1.05A4.21,4.21,0,0,0,45.6,194Z"/><path class="cls-100" d="M53.31,193.09A1.85,1.85,0,0,1,53,192a2.17,2.17,0,0,1,.88-1.92,3.87,3.87,0,0,1,2.24-.73,4.6,4.6,0,0,1,1.4.16,3.47,3.47,0,0,0,.91.17.79.79,0,0,0,.4-.09,1.75,1.75,0,0,0,.4-.34L59.6,192l-.49.1A3.31,3.31,0,0,0,58,190.44a2.77,2.77,0,0,0-1.79-.56,3,3,0,0,0-1.66.46,1.29,1.29,0,0,0-.58,1.17,1.61,1.61,0,0,0,.32,1,2.2,2.2,0,0,0,1,.5c.36.1.88.31,1.46.48a15.76,15.76,0,0,1,1.61.57,3.36,3.36,0,0,1,1.14.82,1.8,1.8,0,0,1,.49,1.18,2.32,2.32,0,0,1-.8,1.95,3.82,3.82,0,0,1-2.48.78,4.65,4.65,0,0,1-1.6-.15,2.63,2.63,0,0,0-.87-.18,1.44,1.44,0,0,0-.53.14l-.61.31c-.13-1.21-.2-1.82-.34-3l.49-.1a3.14,3.14,0,0,0,1.13,1.94,3.59,3.59,0,0,0,2.32.58,3.2,3.2,0,0,0,1.75-.47A1.36,1.36,0,0,0,59,196.6a1.34,1.34,0,0,0-.36-.93,2.13,2.13,0,0,0-.67-.51c-.55-.2-1.16-.42-1.83-.64s-1.24-.44-1.74-.64A2.43,2.43,0,0,1,53.31,193.09Z"/><path class="cls-100" d="M62.9,197.38c-.09-2.73-.13-4.09-.22-6.81a.86.86,0,0,0-.18-.53.76.76,0,0,0-.59-.19l-1.72.06v-.49l.82,0a6.87,6.87,0,0,0,1.39-.17,3.76,3.76,0,0,0,1.21-.49h.17l.28,8.61a.58.58,0,0,0,.22.48.79.79,0,0,0,.54.15l1.72-.06,0,.5-6.07.2,0-.5,1.72-.05a.76.76,0,0,0,.57-.19A.62.62,0,0,0,62.9,197.38Zm-.5-12.76a1.12,1.12,0,0,1,.73-.31,1.09,1.09,0,0,1,.75.27.9.9,0,0,1,.35.68,1,1,0,0,1-.31.75,1,1,0,0,1-1.47.05,1,1,0,0,1-.36-.73A1,1,0,0,1,62.4,184.62Z"/><path class="cls-100" d="M70.29,196.35l1.53.16a3.15,3.15,0,0,1,1.82.64,1.84,1.84,0,0,1,.63,1.41,2.35,2.35,0,0,1-1,2,5.62,5.62,0,0,1-3.21.84,4.91,4.91,0,0,1-2.81-.61,1.94,1.94,0,0,1-1.12-1.56,2,2,0,0,1,.37-1.16,2.71,2.71,0,0,1,1.28-1,2.91,2.91,0,0,1-.79-.5,1,1,0,0,1-.31-.69,1.25,1.25,0,0,1,.3-.87,2.59,2.59,0,0,1,.8-.65,4.29,4.29,0,0,1-.9-.95,2.28,2.28,0,0,1-.41-1.22,3.18,3.18,0,0,1,.79-2.2,3.14,3.14,0,0,1,2.39-1,4.93,4.93,0,0,1,1.28.13,2.12,2.12,0,0,1,1,.54,6.42,6.42,0,0,1,1-.65,1.75,1.75,0,0,1,.77-.23.59.59,0,0,1,.58.27,1.07,1.07,0,0,1,.19.52,1.08,1.08,0,0,1-.11.54.49.49,0,0,1-.44.22.63.63,0,0,1-.42-.11.77.77,0,0,1-.26-.36.29.29,0,0,0-.37-.19,1.33,1.33,0,0,0-.61.3,2,2,0,0,1,.52.89,4.16,4.16,0,0,1,.21,1.14,3,3,0,0,1-.72,2,3.09,3.09,0,0,1-2.47,1,3.31,3.31,0,0,1-.91-.09,2.15,2.15,0,0,1-.66-.27,1.2,1.2,0,0,0-.48.43.71.71,0,0,0-.15.42.6.6,0,0,0,.18.48.63.63,0,0,0,.49.15Zm.24,1.15-2.06-.22a2.28,2.28,0,0,0-1,.81,2.09,2.09,0,0,0-.25,1.12,1.63,1.63,0,0,0,.78,1.2,3.52,3.52,0,0,0,2.24.5,4.6,4.6,0,0,0,2.2-.52,1.47,1.47,0,0,0,.77-1.38,1.75,1.75,0,0,0-.23-.9,1,1,0,0,0-.63-.39C71.8,197.63,71.19,197.56,70.53,197.5Zm-2.33-7.32a2.76,2.76,0,0,0-.55,2,2.52,2.52,0,0,0,.63,1.66,1.91,1.91,0,0,0,1.58.65,2,2,0,0,0,1.58-.67,2.64,2.64,0,0,0,.48-1.78,2.78,2.78,0,0,0-.68-2,2.2,2.2,0,0,0-3,.1Z"/><path class="cls-100" d="M78.62,198l-3.45.11v-.49h.41a.79.79,0,0,0,.57-.19.65.65,0,0,0,.14-.49c-.09-2.82-.14-4.24-.23-7.06a.68.68,0,0,0-.09-.36.39.39,0,0,0-.33-.12l-.66,0,0-.5.58,0a3.18,3.18,0,0,0,.77-.1,1.88,1.88,0,0,0,.69-.35h.16l.07,1.89a5.92,5.92,0,0,1,1.43-1.28,3.08,3.08,0,0,1,1.55-.46,2.59,2.59,0,0,1,2.07.67,3.21,3.21,0,0,1,.73,2.19c.07,2.1.1,3.15.17,5.25a.65.65,0,0,0,.22.49.84.84,0,0,0,.54.14h.41l0,.49-3.45.11v-.49h.41a.84.84,0,0,0,.57-.18.75.75,0,0,0,.15-.5c-.08-2.2-.11-3.3-.19-5.5a2.39,2.39,0,0,0-.46-1.5,1.43,1.43,0,0,0-1.24-.49,2.7,2.7,0,0,0-1.5.54,5,5,0,0,0-1.39,1.44c.07,2.26.11,3.4.18,5.66a.58.58,0,0,0,.22.48.79.79,0,0,0,.54.15h.41Z"/><path class="cls-101" d="M87.87,200.09a1,1,0,0,0,.58.14l.58,0v.5l-3.77.12,0-.49.5,0a.79.79,0,0,0,.56-.18.78.78,0,0,0,.15-.58c-.13-3.87-.19-5.81-.32-9.68a.86.86,0,0,0-.18-.53.7.7,0,0,0-.58-.18h-.49l0-.49.74,0a4,4,0,0,0,.78-.11,1.77,1.77,0,0,0,.68-.35h.17c0,.76,0,1.13.06,1.89a4.05,4.05,0,0,1,1.23-1.27,2.85,2.85,0,0,1,1.5-.46,3.61,3.61,0,0,1,2.75,1,6.1,6.1,0,0,1,.14,7,3.53,3.53,0,0,1-2.66,1.32,3.57,3.57,0,0,1-1.53-.24,4.22,4.22,0,0,1-1.22-.82l.1,2.87A.68.68,0,0,0,87.87,200.09Zm-.54-9.1.15,4.59a3.14,3.14,0,0,0,1.06,1.2,2.53,2.53,0,0,0,1.45.36,2.43,2.43,0,0,0,1.94-1.09,5.07,5.07,0,0,0,.72-3.18,5.73,5.73,0,0,0-.72-2.93,2,2,0,0,0-1.88-.93,2.94,2.94,0,0,0-1.46.5A4,4,0,0,0,87.33,191Z"/><path class="cls-101" d="M96.37,196.28c-.09-2.73-.13-4.09-.22-6.81a.86.86,0,0,0-.18-.53.71.71,0,0,0-.58-.18l-1.73.05v-.49l.82,0a6.87,6.87,0,0,0,1.39-.17,3.76,3.76,0,0,0,1.21-.49h.17l.28,8.61a.62.62,0,0,0,.22.49.84.84,0,0,0,.54.14l1.72-.05,0,.49-6.07.2,0-.5,1.73,0a.84.84,0,0,0,.57-.18A.7.7,0,0,0,96.37,196.28Zm-.5-12.76a1.14,1.14,0,0,1,.73-.31,1.07,1.07,0,0,1,.75.27.9.9,0,0,1,.35.68,1.07,1.07,0,0,1-2.13.07A.9.9,0,0,1,95.87,183.52Z"/><path class="cls-101" d="M103.76,195.25l1.53.16a3.29,3.29,0,0,1,1.83.64,1.86,1.86,0,0,1,.62,1.41,2.37,2.37,0,0,1-1,2,5.68,5.68,0,0,1-3.22.84,5,5,0,0,1-2.81-.6A1.77,1.77,0,0,1,100,197a2.7,2.7,0,0,1,1.29-.95,3,3,0,0,1-.8-.5,1,1,0,0,1-.31-.69,1.25,1.25,0,0,1,.3-.87,2.72,2.72,0,0,1,.8-.65,4,4,0,0,1-.89-.95,2.2,2.2,0,0,1-.41-1.22,3.09,3.09,0,0,1,3.17-3.22,4.53,4.53,0,0,1,1.28.12,2.2,2.2,0,0,1,1,.54,6,6,0,0,1,1-.65,1.93,1.93,0,0,1,.77-.23.61.61,0,0,1,.59.27,1.16,1.16,0,0,1,.18.52,1,1,0,0,1-.11.54.47.47,0,0,1-.44.22.65.65,0,0,1-.42-.11.75.75,0,0,1-.25-.36.3.3,0,0,0-.38-.19,1.31,1.31,0,0,0-.61.31,2.05,2.05,0,0,1,.53.88,4.14,4.14,0,0,1,.2,1.14,3,3,0,0,1-3.19,3,3.31,3.31,0,0,1-.91-.09,2.26,2.26,0,0,1-.66-.27,1.2,1.2,0,0,0-.48.43.89.89,0,0,0-.15.42.66.66,0,0,0,.18.48.64.64,0,0,0,.5.15Zm.25,1.15c-.66-.06-1.35-.14-2.06-.22a2.17,2.17,0,0,0-1,.81,2,2,0,0,0-.25,1.12,1.56,1.56,0,0,0,.78,1.2,3.47,3.47,0,0,0,2.23.5,4.6,4.6,0,0,0,2.2-.52,1.47,1.47,0,0,0,.77-1.38,1.75,1.75,0,0,0-.23-.9.91.91,0,0,0-.63-.39C105.27,196.53,104.67,196.46,104,196.4Zm-2.34-7.32a2.81,2.81,0,0,0-.55,2,2.68,2.68,0,0,0,.63,1.67,1.93,1.93,0,0,0,1.58.64,2,2,0,0,0,1.58-.67,2.59,2.59,0,0,0,.48-1.78,2.78,2.78,0,0,0-.68-2,2.2,2.2,0,0,0-3,.1Z"/><path class="cls-100" d="M109.1,182.47l7.54,7.07-7.06,7.54-.5-.48,6.58-7-7-6.59Z"/></g></g></svg>